<?xml version="1.0" encoding="UTF-8"?>
<svg version="1.1" xmlns="http://www.w3.org/2000/svg" width="1024" height="1024">
<path d="M0 0 C337.92 0 675.84 0 1024 0 C1024 337.92 1024 675.84 1024 1024 C686.08 1024 348.16 1024 0 1024 C0 686.08 0 348.16 0 0 Z " fill="#FEFEFE" transform="translate(0,0)"/>
<path d="M0 0 C1.19710602 -0.01189865 2.39421204 -0.0237973 3.62759399 -0.03605652 C6.15760247 -0.05259084 8.68772638 -0.05595984 11.21777344 -0.04711914 C15.0820599 -0.04298959 18.94111451 -0.10803836 22.8046875 -0.17773438 C25.26561578 -0.18521565 27.7265606 -0.18860584 30.1875 -0.1875 C31.33874359 -0.21310501 32.48998718 -0.23871002 33.67611694 -0.26509094 C41.5332629 -0.15254372 41.5332629 -0.15254372 45.02374268 2.54458618 C47.32641816 5.12940753 49.17910665 7.67461956 50.7265625 10.76953125 C52.66022092 11.22718561 52.66022092 11.22718561 54.98828125 11.41796875 C68.99741403 13.20222426 68.99741403 13.20222426 73.10546875 16.92578125 C74.37991794 19.45289417 75.31322044 21.90531717 76.08105469 24.62744141 C76.87227941 27.25308655 77.84382153 29.78430353 78.828125 32.34375 C80.31641282 36.2458746 81.7844332 40.15226588 83.1875 44.0859375 C83.63295166 45.33032593 83.63295166 45.33032593 84.08740234 46.59985352 C84.7265625 48.76953125 84.7265625 48.76953125 84.7265625 51.76953125 C84.0665625 51.76953125 83.4065625 51.76953125 82.7265625 51.76953125 C81.38549805 50.00048828 81.38549805 50.00048828 79.86328125 47.52734375 C79.02700195 46.17382812 79.02700195 46.17382812 78.17382812 44.79296875 C77.30274414 43.35824219 77.30274414 43.35824219 76.4140625 41.89453125 C75.84494141 40.97671875 75.27582031 40.05890625 74.68945312 39.11328125 C71.89145156 34.55167136 69.43062823 30.11949418 67.33984375 25.19140625 C65.73946801 21.85619172 65.73946801 21.85619172 62.8269043 19.77099609 C60.59902679 19.25504508 58.50905754 19.02067951 56.2265625 18.89453125 C54.73565774 18.765783 53.24589873 18.62287061 51.7578125 18.46484375 C50.77651367 18.40321045 50.77651367 18.40321045 49.77539062 18.34033203 C47.7265625 17.76953125 47.7265625 17.76953125 45.6340332 15.76416016 C41.30342829 12.79321028 37.31525945 13.16659713 32.17578125 13.16015625 C30.65486626 13.13535187 30.65486626 13.13535187 29.10322571 13.11004639 C25.873443 13.06156783 22.64413117 13.04019523 19.4140625 13.01953125 C17.22067944 12.99137153 15.02731831 12.96144411 12.83398438 12.9296875 C7.46462717 12.85248902 2.09675675 12.81196661 -3.2734375 12.76953125 C-3.2734375 25.96953125 -3.2734375 39.16953125 -3.2734375 52.76953125 C6.2965625 52.76953125 15.8665625 52.76953125 25.7265625 52.76953125 C25.7265625 97.31953125 25.7265625 141.86953125 25.7265625 187.76953125 C28.0365625 187.76953125 30.3465625 187.76953125 32.7265625 187.76953125 C32.7265625 143.21953125 32.7265625 98.66953125 32.7265625 52.76953125 C47.5765625 52.76953125 62.4265625 52.76953125 77.7265625 52.76953125 C77.7265625 97.31953125 77.7265625 141.86953125 77.7265625 187.76953125 C90.5965625 187.43953125 103.4665625 187.10953125 116.7265625 186.76953125 C114.4165625 184.45953125 112.1065625 182.14953125 109.7265625 179.76953125 C108.58299899 178.51537621 107.4532323 177.24814163 106.3515625 175.95703125 C103.71746883 172.90548077 101.05065974 169.88884225 98.3515625 166.89453125 C97.59875 166.05664062 96.8459375 165.21875 96.0703125 164.35546875 C94.47861437 162.59929515 92.87392088 160.85483028 91.2578125 159.12109375 C90.46375 158.26257813 89.6696875 157.4040625 88.8515625 156.51953125 C87.77261719 155.36710937 87.77261719 155.36710937 86.671875 154.19140625 C81.73505632 148.04516612 81.10613906 142.8643521 81.33984375 135.16015625 C82.40980491 125.77908262 89.85126921 120.67924459 96.50390625 114.734375 C99.94398244 111.62840333 102.95223028 108.23662359 105.96484375 104.71875 C108.10351178 102.3524632 110.44913464 100.39275921 112.91470337 98.37983704 C114.78922047 96.71384343 116.36483795 94.95981113 117.98583984 93.04760742 C121.49971514 88.98241222 125.20172317 85.16528293 129.015625 81.3828125 C129.68193939 80.71791306 130.34825378 80.05301361 131.03475952 79.3679657 C133.1379942 77.27026366 135.2446938 75.17608269 137.3515625 73.08203125 C138.77106712 71.66755229 140.19033985 70.25284057 141.609375 68.83789062 C144.7359524 65.72105927 147.86471281 62.60643923 150.99551392 59.49385071 C152.40527924 58.08956558 153.73425943 56.60455415 155.036026 55.09960938 C158.32379407 52.25231239 159.78641401 52.15890852 164.07739258 52.2019043 C165.3383223 52.20228195 166.59925201 52.20265961 167.89839172 52.20304871 C169.26430256 52.22857801 170.63020319 52.25465792 171.99609375 52.28125 C173.40141032 52.29058266 174.80674322 52.29769664 176.21208191 52.3026886 C179.89994709 52.32172353 183.58681801 52.37079154 187.27429199 52.4262085 C191.04144848 52.47747821 194.80876661 52.50021895 198.57617188 52.52539062 C205.9600873 52.57891588 213.34318526 52.66418343 220.7265625 52.76953125 C214.47887296 60.15140616 214.47887296 60.15140616 211.32421875 63.234375 C210.74728271 63.80293213 210.17034668 64.37148926 209.57592773 64.95727539 C208.69142944 65.82340454 208.69142944 65.82340454 207.7890625 66.70703125 C203.43646433 71.00954068 199.17686355 75.31806212 195.25390625 80.0234375 C191.60499088 84.19495968 187.50417734 87.98026816 183.55322266 91.86352539 C178.59366644 96.74179328 173.6465155 101.63243569 168.70652199 106.5305109 C165.72375855 109.48705513 162.73643862 112.43869075 159.73876953 115.38012695 C156.83029597 118.23441016 153.9340885 121.10061831 151.04609299 123.97561455 C149.94438903 125.06807144 148.83828951 126.15611371 147.72780228 127.23964119 C146.18126937 128.75004628 144.65093026 130.27521078 143.12353516 131.80493164 C142.24815094 132.6692128 141.37276672 133.53349396 140.47085571 134.42396545 C138.48456248 136.57497733 138.48456248 136.57497733 138.83798218 138.94993591 C140.08306591 141.4995631 141.78991327 143.07668893 143.8515625 145.01953125 C147.41772885 148.40060246 150.65847341 151.94436311 153.87060547 155.65527344 C156.90203347 159.1085971 160.06685132 162.43391862 163.2265625 165.76953125 C167.58040208 170.36574952 171.85374384 175.00178496 175.97070312 179.8125 C178.12941916 182.2185439 180.44083481 184.48380356 182.7265625 186.76953125 C195.9265625 187.09953125 209.1265625 187.42953125 222.7265625 187.76953125 C222.7265625 130.01953125 222.7265625 72.26953125 222.7265625 12.76953125 C187.04563858 7.76467389 187.04563858 7.76467389 157.7265625 17.76953125 C155.64945443 17.98581166 153.56846145 18.19062786 151.48168945 18.27148438 C146.52488567 18.52773928 141.66819516 18.81621206 138.02294922 22.48339844 C134.9770088 26.85574737 132.85112949 31.66755241 130.74072266 36.54345703 C129.32864146 39.64296506 127.60080332 42.3632239 125.7265625 45.20703125 C125.1903125 46.03074219 124.6540625 46.85445313 124.1015625 47.703125 C122.97743584 49.39250853 121.85216353 51.0811297 120.7265625 52.76953125 C120.0665625 52.76953125 119.4065625 52.76953125 118.7265625 52.76953125 C119.71099736 45.80715134 122.96999357 39.33128888 125.66015625 32.89453125 C126.92539602 29.85571147 128.03035756 26.88434877 128.88671875 23.70703125 C130.09032382 19.91071418 130.94243467 17.6410945 133.7265625 14.76953125 C138.66849222 12.82219583 143.83148025 12.2637888 149.07421875 11.67578125 C153.74401818 11.0203708 155.7668387 9.54928862 158.7265625 5.76953125 C159.29399673 4.90147354 159.86143097 4.03341583 160.44606018 3.13905334 C162.7265625 0.76953125 162.7265625 0.76953125 165.75547791 0.14134216 C166.93952713 0.1403804 168.12357635 0.13941864 169.34350586 0.13842773 C170.32719902 0.12769478 170.32719902 0.12769478 171.33076477 0.116745 C173.49335935 0.09986972 175.6538768 0.11925146 177.81640625 0.140625 C179.32328971 0.13979607 180.83017307 0.13733578 182.33705139 0.13331604 C185.49377696 0.13045876 188.64979273 0.14514921 191.80639648 0.17260742 C195.846287 0.20666201 199.88490608 0.20068175 203.92485714 0.18194485 C207.03652986 0.17135815 210.1479085 0.18032808 213.25955391 0.19532967 C214.74864388 0.20050174 216.2377647 0.2000415 217.72685051 0.19378471 C219.81197597 0.18831297 221.89530417 0.20876615 223.98022461 0.23608398 C225.75749184 0.24538185 225.75749184 0.24538185 227.57066345 0.25486755 C231.51450776 0.89802928 232.97215162 1.88197701 235.7265625 4.76953125 C236.21893289 7.56312844 236.38310612 9.74873461 236.32783508 12.53961182 C236.33210721 13.32707157 236.33637933 14.11453132 236.34078091 14.92585349 C236.34902399 17.56735665 236.32150561 20.20727572 236.29418945 22.84863281 C236.29277926 24.740824 236.2935704 26.63301793 236.29640198 28.52520752 C236.29783866 33.6655415 236.26840786 38.80529408 236.23353219 43.94549274 C236.20231083 49.31598794 236.19934128 54.68649593 236.19340515 60.05706787 C236.17785431 70.22852925 236.13680895 80.39972246 236.0866577 90.57106566 C236.03080291 102.15010218 236.00328744 113.72915139 235.97818053 125.30828905 C235.92589429 149.12885189 235.83792779 172.94917656 235.7265625 196.76953125 C236.35158535 197.07104127 236.9766082 197.37255129 237.62057114 197.68319798 C239.82783935 198.82177288 241.32058228 200.05425154 243.11816406 201.75952148 C243.758526 202.36452988 244.39888794 202.96953827 245.05865479 203.59288025 C247.94952622 206.38083077 250.83349372 209.17521854 253.70019531 211.98803711 C255.21343787 213.46314024 256.73820627 214.92651433 258.27441406 216.37768555 C260.4994301 218.4805504 262.68565999 220.61778317 264.8671875 222.765625 C265.55460022 223.40253769 266.24201294 224.03945038 266.95025635 224.69566345 C271.50914414 229.29539795 272.49861888 232.81724589 272.5536499 239.25404358 C271.59456008 242.17100085 270.38295607 243.31751955 267.80270422 244.93406016 C263.18131992 246.79377569 258.06004311 246.31008864 253.1559906 246.27073669 C251.87623999 246.27627109 250.59648938 246.28180549 249.27795845 246.28750759 C245.73232212 246.30225548 242.1871302 246.29208536 238.64150822 246.27777088 C234.81528427 246.26666115 230.98912266 246.27860362 227.16290283 246.28761292 C219.67022886 246.30154702 212.1777234 246.29398817 204.68505745 246.27893733 C195.96108273 246.26207985 187.23715002 246.26528713 178.51316405 246.26903141 C162.94892751 246.27491022 147.38477187 246.26073717 131.82055664 246.23608398 C116.71440601 246.21215902 101.60836344 246.2050813 86.50219727 246.21557617 C70.05488062 246.22698231 53.60761397 246.22891953 37.16029793 246.21447808 C35.40696053 246.21295222 33.65362313 246.21143187 31.90028572 246.20991707 C31.03759269 246.20915925 30.17489967 246.20840144 29.28606443 246.20762066 C23.20341709 246.2028758 17.12079206 246.20473067 11.03814507 246.20898247 C3.62733668 246.2139062 -3.78336949 246.20793779 -11.19415445 246.18808817 C-14.97603733 246.17820843 -18.75776446 246.17311837 -22.53965569 246.18098068 C-26.63653489 246.18932368 -30.73299803 246.17447301 -34.82984924 246.1572113 C-36.62866408 246.16622637 -36.62866408 246.16622637 -38.46381861 246.17542356 C-40.10865541 246.16276365 -40.10865541 246.16276365 -41.78672123 246.14984798 C-42.7323899 246.14881885 -43.67805857 246.14778973 -44.65238386 246.14672941 C-47.80768456 245.69264728 -49.70207106 244.62454399 -52.2734375 242.76953125 C-54.24448357 238.82743912 -54.20894676 235.02224629 -53.2734375 230.76953125 C-51.48022461 228.58618164 -51.48022461 228.58618164 -49.05078125 226.4921875 C-48.14336182 225.70851807 -47.23594238 224.92484863 -46.30102539 224.11743164 C-43.24982925 221.751223 -40.10288298 219.74903096 -36.828125 217.70703125 C-28.77606932 212.2477292 -21.62570802 206.17229911 -18.2734375 196.76953125 C-14.25336236 175.80804431 -16.72678755 152.90988629 -18.2734375 131.76953125 C-18.62535156 132.39524521 -18.97726562 133.02095917 -19.33984375 133.66563416 C-25.87917921 145.2850798 -32.42787631 156.88953765 -39.2734375 168.33203125 C-43.2211007 174.93782601 -47.16095926 181.54276743 -50.96875 188.23046875 C-51.54882812 189.24036865 -52.12890625 190.25026855 -52.7265625 191.29077148 C-53.80802151 193.17716575 -54.8790788 195.06957805 -55.9375 196.96899414 C-58.81210524 201.95320412 -61.06192541 205.18825882 -66.2734375 207.76953125 C-69.44341151 208.59554817 -72.07417809 208.40429708 -75.2734375 207.76953125 C-81.23142848 204.25360497 -84.29009244 198.89033145 -87.3359375 192.89453125 C-88.28467725 191.09992915 -89.23664647 189.30703159 -90.19140625 187.515625 C-90.93849854 186.10772705 -90.93849854 186.10772705 -91.70068359 184.67138672 C-94.39680568 179.69682803 -97.27629089 174.83138592 -100.1484375 169.95703125 C-105.00666684 161.6814418 -109.80253471 153.37429558 -114.5234375 145.01953125 C-115.07241699 144.04910889 -115.62139648 143.07868652 -116.18701172 142.07885742 C-118.29607006 138.33733576 -120.35187239 134.61266147 -122.2734375 130.76953125 C-122.6034375 168.71953125 -122.9334375 206.66953125 -123.2734375 245.76953125 C-137.7934375 245.76953125 -152.3134375 245.76953125 -167.2734375 245.76953125 C-167.2734375 182.07953125 -167.2734375 118.38953125 -167.2734375 52.76953125 C-152.0934375 52.76953125 -136.9134375 52.76953125 -121.2734375 52.76953125 C-111.78392373 63.54690761 -111.78392373 63.54690761 -109.2421875 71.87109375 C-107.78845904 76.22055551 -105.47105208 79.85728383 -103.0234375 83.70703125 C-102.20455281 85.08814489 -101.39062134 86.47220915 -100.58203125 87.859375 C-97.31701952 93.39864562 -94.00404321 98.90886363 -90.68847656 104.41796875 C-87.61013901 109.53366014 -84.53526928 114.65143187 -81.4609375 119.76953125 C-80.81423096 120.84460938 -80.16752441 121.9196875 -79.5012207 123.02734375 C-76.36794854 128.24388033 -73.26254322 133.46895083 -70.2734375 138.76953125 C-60.85875304 123.69465885 -51.93700943 108.32268525 -42.953125 92.98901367 C-41.50490733 90.51723359 -40.05565502 88.04606506 -38.60546875 85.57543945 C-37.88927835 84.35500662 -37.17313226 83.13454779 -36.45703125 81.9140625 C-35.93035355 81.01642937 -35.93035355 81.01642937 -35.39303589 80.10066223 C-33.03909959 76.08515793 -30.70214371 72.06010022 -28.37109375 68.03125 C-27.19273268 66.00649625 -26.01434865 63.98175586 -24.8359375 61.95703125 C-24.02962891 60.55130859 -24.02962891 60.55130859 -23.20703125 59.1171875 C-22.71460938 58.27414062 -22.2221875 57.43109375 -21.71484375 56.5625 C-21.28888916 55.82539795 -20.86293457 55.0882959 -20.42407227 54.32885742 C-20.04436279 53.81427979 -19.66465332 53.29970215 -19.2734375 52.76953125 C-18.6134375 52.76953125 -17.9534375 52.76953125 -17.2734375 52.76953125 C-17.28454056 52.19181473 -17.29564362 51.61409821 -17.30708313 51.01887512 C-17.41778561 45.00061519 -17.49314955 38.98264489 -17.5480957 32.96362305 C-17.57322473 30.71806081 -17.60733365 28.47258025 -17.65063477 26.22729492 C-17.71135526 22.99767907 -17.73966381 19.76914541 -17.76171875 16.5390625 C-17.78752518 15.5368013 -17.8133316 14.5345401 -17.83992004 13.50190735 C-17.84166247 9.16217199 -17.66828833 6.46925305 -15.51000977 2.64453125 C-10.4895563 -0.26390072 -5.70889858 -0.00350844 0 0 Z " fill="#013D7C" transform="translate(416.2734375,364.23046875)"/>
<path d="M0 0 C1.19710602 -0.01189865 2.39421204 -0.0237973 3.62759399 -0.03605652 C6.15760247 -0.05259084 8.68772638 -0.05595984 11.21777344 -0.04711914 C15.0820599 -0.04298959 18.94111451 -0.10803836 22.8046875 -0.17773438 C25.26561578 -0.18521565 27.7265606 -0.18860584 30.1875 -0.1875 C31.33874359 -0.21310501 32.48998718 -0.23871002 33.67611694 -0.26509094 C41.5332629 -0.15254372 41.5332629 -0.15254372 45.02374268 2.54458618 C47.32641816 5.12940753 49.17910665 7.67461956 50.7265625 10.76953125 C52.66022092 11.22718561 52.66022092 11.22718561 54.98828125 11.41796875 C68.99741403 13.20222426 68.99741403 13.20222426 73.10546875 16.92578125 C74.37991794 19.45289417 75.31322044 21.90531717 76.08105469 24.62744141 C76.87227941 27.25308655 77.84382153 29.78430353 78.828125 32.34375 C80.31641282 36.2458746 81.7844332 40.15226588 83.1875 44.0859375 C83.63295166 45.33032593 83.63295166 45.33032593 84.08740234 46.59985352 C84.7265625 48.76953125 84.7265625 48.76953125 84.7265625 51.76953125 C84.0665625 51.76953125 83.4065625 51.76953125 82.7265625 51.76953125 C81.38549805 50.00048828 81.38549805 50.00048828 79.86328125 47.52734375 C79.02700195 46.17382812 79.02700195 46.17382812 78.17382812 44.79296875 C77.30274414 43.35824219 77.30274414 43.35824219 76.4140625 41.89453125 C75.84494141 40.97671875 75.27582031 40.05890625 74.68945312 39.11328125 C71.89145156 34.55167136 69.43062823 30.11949418 67.33984375 25.19140625 C65.73946801 21.85619172 65.73946801 21.85619172 62.8269043 19.77099609 C60.59902679 19.25504508 58.50905754 19.02067951 56.2265625 18.89453125 C54.73565774 18.765783 53.24589873 18.62287061 51.7578125 18.46484375 C50.77651367 18.40321045 50.77651367 18.40321045 49.77539062 18.34033203 C47.7265625 17.76953125 47.7265625 17.76953125 45.6340332 15.76416016 C41.30342829 12.79321028 37.31525945 13.16659713 32.17578125 13.16015625 C30.65486626 13.13535187 30.65486626 13.13535187 29.10322571 13.11004639 C25.873443 13.06156783 22.64413117 13.04019523 19.4140625 13.01953125 C17.22067944 12.99137153 15.02731831 12.96144411 12.83398438 12.9296875 C7.46462717 12.85248902 2.09675675 12.81196661 -3.2734375 12.76953125 C-3.2734375 25.96953125 -3.2734375 39.16953125 -3.2734375 52.76953125 C6.2965625 52.76953125 15.8665625 52.76953125 25.7265625 52.76953125 C25.7265625 97.31953125 25.7265625 141.86953125 25.7265625 187.76953125 C28.0365625 187.76953125 30.3465625 187.76953125 32.7265625 187.76953125 C32.7059375 188.53265625 32.6853125 189.29578125 32.6640625 190.08203125 C32.59713409 192.87138911 32.59713409 192.87138911 33.7265625 195.76953125 C33.81778678 197.23665044 33.85445902 198.70753842 33.85595703 200.17749023 C33.85910919 201.06528671 33.86226135 201.95308319 33.86550903 202.86778259 C33.86247269 204.30221458 33.86247269 204.30221458 33.859375 205.765625 C33.86033173 206.75071548 33.86128845 207.73580597 33.86227417 208.75074768 C33.86295481 210.83456486 33.86110861 212.91838416 33.85693359 215.00219727 C33.85158942 218.19096652 33.85687959 221.37959455 33.86328125 224.56835938 C33.86262034 226.59244823 33.8613389 228.61653699 33.859375 230.640625 C33.86139923 231.59488876 33.86342346 232.54915253 33.86550903 233.53233337 C33.86078079 234.86875633 33.86078079 234.86875633 33.85595703 236.23217773 C33.85516144 237.01366684 33.85436584 237.79515594 33.85354614 238.60032654 C33.7265625 240.76953125 33.7265625 240.76953125 32.7265625 244.76953125 C16.2265625 244.76953125 -0.2734375 244.76953125 -17.2734375 244.76953125 C-17.2528125 238.74703125 -17.2321875 232.72453125 -17.2109375 226.51953125 C-17.17747835 205.32846617 -17.44624521 184.14494307 -17.7734375 162.95703125 C-17.78539532 162.1824205 -17.79735313 161.40780975 -17.80967331 160.60972595 C-17.95859977 150.99623388 -18.11327894 141.38284297 -18.2734375 131.76953125 C-18.62535156 132.39524521 -18.97726562 133.02095917 -19.33984375 133.66563416 C-25.87917921 145.2850798 -32.42787631 156.88953765 -39.2734375 168.33203125 C-43.2211007 174.93782601 -47.16095926 181.54276743 -50.96875 188.23046875 C-51.54882812 189.24036865 -52.12890625 190.25026855 -52.7265625 191.29077148 C-53.80802151 193.17716575 -54.8790788 195.06957805 -55.9375 196.96899414 C-58.81210524 201.95320412 -61.06192541 205.18825882 -66.2734375 207.76953125 C-69.44341151 208.59554817 -72.07417809 208.40429708 -75.2734375 207.76953125 C-81.23142848 204.25360497 -84.29009244 198.89033145 -87.3359375 192.89453125 C-88.28467725 191.09992915 -89.23664647 189.30703159 -90.19140625 187.515625 C-90.93849854 186.10772705 -90.93849854 186.10772705 -91.70068359 184.67138672 C-94.39680568 179.69682803 -97.27629089 174.83138592 -100.1484375 169.95703125 C-105.00666684 161.6814418 -109.80253471 153.37429558 -114.5234375 145.01953125 C-115.07241699 144.04910889 -115.62139648 143.07868652 -116.18701172 142.07885742 C-118.29607006 138.33733576 -120.35187239 134.61266147 -122.2734375 130.76953125 C-122.6034375 168.71953125 -122.9334375 206.66953125 -123.2734375 245.76953125 C-137.7934375 245.76953125 -152.3134375 245.76953125 -167.2734375 245.76953125 C-167.2734375 182.07953125 -167.2734375 118.38953125 -167.2734375 52.76953125 C-152.0934375 52.76953125 -136.9134375 52.76953125 -121.2734375 52.76953125 C-111.78392373 63.54690761 -111.78392373 63.54690761 -109.2421875 71.87109375 C-107.78845904 76.22055551 -105.47105208 79.85728383 -103.0234375 83.70703125 C-102.20455281 85.08814489 -101.39062134 86.47220915 -100.58203125 87.859375 C-97.31701952 93.39864562 -94.00404321 98.90886363 -90.68847656 104.41796875 C-87.61013901 109.53366014 -84.53526928 114.65143187 -81.4609375 119.76953125 C-80.81423096 120.84460938 -80.16752441 121.9196875 -79.5012207 123.02734375 C-76.36794854 128.24388033 -73.26254322 133.46895083 -70.2734375 138.76953125 C-60.85875304 123.69465885 -51.93700943 108.32268525 -42.953125 92.98901367 C-41.50490733 90.51723359 -40.05565502 88.04606506 -38.60546875 85.57543945 C-37.88927835 84.35500662 -37.17313226 83.13454779 -36.45703125 81.9140625 C-35.93035355 81.01642937 -35.93035355 81.01642937 -35.39303589 80.10066223 C-33.03909959 76.08515793 -30.70214371 72.06010022 -28.37109375 68.03125 C-27.19273268 66.00649625 -26.01434865 63.98175586 -24.8359375 61.95703125 C-24.02962891 60.55130859 -24.02962891 60.55130859 -23.20703125 59.1171875 C-22.71460938 58.27414062 -22.2221875 57.43109375 -21.71484375 56.5625 C-21.28888916 55.82539795 -20.86293457 55.0882959 -20.42407227 54.32885742 C-20.04436279 53.81427979 -19.66465332 53.29970215 -19.2734375 52.76953125 C-18.6134375 52.76953125 -17.9534375 52.76953125 -17.2734375 52.76953125 C-17.28454056 52.19181473 -17.29564362 51.61409821 -17.30708313 51.01887512 C-17.41778561 45.00061519 -17.49314955 38.98264489 -17.5480957 32.96362305 C-17.57322473 30.71806081 -17.60733365 28.47258025 -17.65063477 26.22729492 C-17.71135526 22.99767907 -17.73966381 19.76914541 -17.76171875 16.5390625 C-17.78752518 15.5368013 -17.8133316 14.5345401 -17.83992004 13.50190735 C-17.84166247 9.16217199 -17.66828833 6.46925305 -15.51000977 2.64453125 C-10.4895563 -0.26390072 -5.70889858 -0.00350844 0 0 Z " fill="#023E7C" transform="translate(416.2734375,364.23046875)"/>
<path d="M0 0 C1.26092972 0.00037766 2.52185944 0.00075531 3.82099915 0.00114441 C5.18690998 0.02667371 6.55281062 0.05275362 7.91870117 0.0793457 C9.32401774 0.08867836 10.72935064 0.09579234 12.13468933 0.1007843 C15.82255451 0.11981923 19.50942543 0.16888725 23.19689941 0.2243042 C26.9640559 0.27557391 30.73137403 0.29831466 34.4987793 0.32348633 C41.88269473 0.37701158 49.26579269 0.46227913 56.64916992 0.56762695 C50.40148039 7.94950186 50.40148039 7.94950186 47.24682617 11.0324707 C46.66989014 11.60102783 46.0929541 12.16958496 45.49853516 12.75537109 C44.90886963 13.33279053 44.3192041 13.91020996 43.71166992 14.50512695 C39.35907175 18.80763638 35.09947097 23.11615783 31.17651367 27.8215332 C27.5275983 31.99305538 23.42678476 35.77836387 19.47583008 39.66162109 C14.51627386 44.53988898 9.56912293 49.43053139 4.62912941 54.32860661 C1.64636597 57.28515084 -1.34095395 60.23678646 -4.33862305 63.17822266 C-7.24709661 66.03250586 -10.14330407 68.89871401 -13.03129959 71.77371025 C-14.13300355 72.86616715 -15.23910307 73.95420942 -16.3495903 75.03773689 C-17.89612321 76.54814198 -19.42646232 78.07330648 -20.95385742 79.60302734 C-21.82924164 80.4673085 -22.70462585 81.33158966 -23.60653687 82.22206116 C-25.5928301 84.37307303 -25.5928301 84.37307303 -25.2394104 86.74803162 C-23.99432667 89.2976588 -22.28747931 90.87478463 -20.22583008 92.81762695 C-16.65966373 96.19869816 -13.41891916 99.74245882 -10.20678711 103.45336914 C-7.17535911 106.9066928 -4.01054126 110.23201432 -0.85083008 113.56762695 C3.58577731 118.25122073 7.9350678 122.98243364 12.14355469 127.87304688 C13.74702846 129.72622215 13.74702846 129.72622215 16.08666992 131.88012695 C17.64916992 133.56762695 17.64916992 133.56762695 17.64916992 136.56762695 C18.63916992 136.56762695 19.62916992 136.56762695 20.64916992 136.56762695 C25.64916992 141.80018509 25.64916992 141.80018509 25.64916992 145.56762695 C26.54671997 145.97053955 26.54671997 145.97053955 27.46240234 146.3815918 C29.66484722 147.57612984 30.95972664 148.70537854 32.63745117 150.54418945 C33.44448486 151.42095337 33.44448486 151.42095337 34.26782227 152.31542969 C34.82679199 152.93490479 35.38576172 153.55437988 35.96166992 154.19262695 C36.54126465 154.82563721 37.12085938 155.45864746 37.71801758 156.11083984 C41.23430152 159.96315934 44.69038739 163.86341603 48.08276367 167.82543945 C50.37075762 170.37019082 52.8531753 172.70144291 55.36401367 175.0246582 C56.64916992 176.56762695 56.64916992 176.56762695 56.64916992 179.56762695 C57.63916992 179.56762695 58.62916992 179.56762695 59.64916992 179.56762695 C59.64916992 180.88762695 59.64916992 182.20762695 59.64916992 183.56762695 C60.96916992 183.89762695 62.28916992 184.22762695 63.64916992 184.56762695 C63.64916992 185.55762695 63.64916992 186.54762695 63.64916992 187.56762695 C64.30916992 187.56762695 64.96916992 187.56762695 65.64916992 187.56762695 C65.64916992 188.22762695 65.64916992 188.88762695 65.64916992 189.56762695 C66.30916992 189.56762695 66.96916992 189.56762695 67.64916992 189.56762695 C67.64916992 190.22762695 67.64916992 190.88762695 67.64916992 191.56762695 C68.30916992 191.89762695 68.96916992 192.22762695 69.64916992 192.56762695 C61.37372161 192.63715485 53.09839545 192.69045214 44.8227272 192.72306347 C40.97993906 192.73871575 37.13735083 192.75994568 33.29467773 192.79394531 C29.58587429 192.82655491 25.87726308 192.84448327 22.16832733 192.85225868 C20.75373051 192.85779937 19.33914414 192.86861907 17.92462921 192.88481712 C15.94261445 192.90660996 13.96040602 192.90785252 11.97827148 192.90820312 C10.85020081 192.91486496 9.72213013 192.92152679 8.55987549 192.9283905 C5.33446454 192.52862121 3.93219738 191.84963393 1.64916992 189.56762695 C1.64916992 188.90762695 1.64916992 188.24762695 1.64916992 187.56762695 C0.98916992 187.56762695 0.32916992 187.56762695 -0.35083008 187.56762695 C-2.35083008 184.56762695 -2.35083008 184.56762695 -2.35083008 181.56762695 C-3.01083008 181.56762695 -3.67083008 181.56762695 -4.35083008 181.56762695 C-4.35083008 180.90762695 -4.35083008 180.24762695 -4.35083008 179.56762695 C-4.94162354 179.3065918 -5.53241699 179.04555664 -6.14111328 178.77661133 C-8.48572774 177.49382149 -9.89971735 176.18151393 -11.70629883 174.22387695 C-12.32448486 173.55928467 -12.9426709 172.89469238 -13.57958984 172.20996094 C-14.22597412 171.50299072 -14.8723584 170.79602051 -15.53833008 170.06762695 C-16.20598389 169.34583252 -16.8736377 168.62403809 -17.56152344 167.88037109 C-19.49819466 165.78233014 -21.42625232 163.67676038 -23.35083008 161.56762695 C-23.8390625 161.03379395 -24.32729492 160.49996094 -24.83032227 159.94995117 C-28.55981365 155.86439891 -32.22356527 151.73508711 -35.78833008 147.50512695 C-38.01472004 144.5773368 -38.01472004 144.5773368 -40.35083008 143.56762695 C-40.35083008 142.90762695 -40.35083008 142.24762695 -40.35083008 141.56762695 C-41.67083008 140.90762695 -42.99083008 140.24762695 -44.35083008 139.56762695 C-44.35083008 138.24762695 -44.35083008 136.92762695 -44.35083008 135.56762695 C-44.94468506 135.30353027 -45.53854004 135.03943359 -46.15039062 134.76733398 C-48.43720936 133.52053189 -49.80334748 132.28174208 -51.55786133 130.37231445 C-52.14083984 129.74292969 -52.72381836 129.11354492 -53.32446289 128.46508789 C-53.93128906 127.79767578 -54.53811523 127.13026367 -55.16333008 126.44262695 C-55.79207031 125.75974609 -56.42081055 125.07686523 -57.06860352 124.37329102 C-60.64720708 120.4749369 -64.19087434 116.54915687 -67.63208008 112.52856445 C-69.01973985 110.9453708 -70.44530969 109.3954528 -71.88208008 107.85668945 C-72.77926758 106.89504883 -73.67645508 105.9334082 -74.60083008 104.94262695 C-75.43098633 104.06348633 -76.26114258 103.1843457 -77.11645508 102.27856445 C-82.27027152 96.02550744 -82.9780852 90.88765786 -82.73754883 82.95825195 C-81.66758767 73.57717832 -74.22612337 68.47734029 -67.57348633 62.5324707 C-64.13341014 59.42649904 -61.1251623 56.0347193 -58.11254883 52.5168457 C-55.9738808 50.1505589 -53.62825794 48.19085491 -51.16268921 46.17793274 C-49.28817211 44.51193913 -47.71255463 42.75790683 -46.09155273 40.84570312 C-42.57767744 36.78050792 -38.87566941 32.96337863 -35.06176758 29.1809082 C-34.39545319 28.51600876 -33.72913879 27.85110931 -33.04263306 27.1660614 C-30.93939838 25.06835936 -28.83269878 22.97417839 -26.72583008 20.88012695 C-25.30632546 19.46564799 -23.88705273 18.05093628 -22.46801758 16.63598633 C-19.34144018 13.51915498 -16.21267977 10.40453493 -13.08187866 7.29194641 C-11.67211334 5.88766129 -10.34313314 4.40264986 -9.04136658 2.89770508 C-5.75359851 0.05040809 -4.29097857 -0.04299578 0 0 Z " fill="#013D7C" transform="translate(580.350830078125,416.432373046875)"/>
<path d="M0 0 C1.18404922 -0.00096176 2.36809845 -0.00192352 3.58802795 -0.00291443 C4.24382339 -0.01006973 4.89961884 -0.01722504 5.57528687 -0.02459717 C7.73788144 -0.04147244 9.89839889 -0.02209071 12.06092834 -0.00071716 C13.5678118 -0.00154609 15.07469516 -0.00400638 16.58157349 -0.00802612 C19.73829905 -0.0108834 22.89431482 0.00380705 26.05091858 0.03126526 C30.0908091 0.06531985 34.12942818 0.05933958 38.16937923 0.04060268 C41.28105195 0.03001598 44.3924306 0.03898592 47.504076 0.0539875 C48.99316598 0.05915958 50.48228679 0.05869934 51.9713726 0.05244255 C54.05649807 0.04697081 56.13982626 0.06742399 58.2247467 0.09474182 C60.00201393 0.10403969 60.00201393 0.10403969 61.81518555 0.11352539 C65.75902986 0.75668712 67.21667372 1.74063485 69.97108459 4.62818909 C70.46345498 7.42178628 70.62762822 9.60739245 70.57235718 12.39826965 C70.5766293 13.18572941 70.58090143 13.97318916 70.58530301 14.78451133 C70.59354609 17.42601449 70.56602771 20.06593355 70.53871155 22.70729065 C70.53730136 24.59948184 70.53809249 26.49167576 70.54092407 28.38386536 C70.54236076 33.52419934 70.51292996 38.66395192 70.47805429 43.80415058 C70.44683292 49.17464577 70.44386337 54.54515377 70.43792725 59.91572571 C70.42237641 70.08718709 70.38133105 80.2583803 70.3311798 90.4297235 C70.275325 102.00876002 70.24780954 113.58780923 70.22270262 125.16694689 C70.17041638 148.98750973 70.08244988 172.80783439 69.97108459 196.62818909 C70.59610744 196.92969911 71.22113029 197.23120913 71.86509323 197.54185581 C74.07236145 198.68043071 75.56510437 199.91290937 77.36268616 201.61817932 C78.0030481 202.22318771 78.64341003 202.82819611 79.30317688 203.45153809 C82.19404832 206.2394886 85.07801581 209.03387638 87.94471741 211.84669495 C89.45795996 213.32179808 90.98272836 214.78517217 92.51893616 216.23634338 C94.74395219 218.33920824 96.93018209 220.476441 99.11170959 222.62428284 C99.79912231 223.26119553 100.48653503 223.89810822 101.19477844 224.55432129 C105.75366623 229.15405579 106.74314097 232.67590373 106.798172 239.11270142 C105.83908218 242.02965869 104.62747817 243.17617739 102.04722631 244.79271799 C97.42584202 246.65243352 92.30456521 246.16874647 87.4005127 246.12939453 C86.12076209 246.13492893 84.84101148 246.14046332 83.52248055 246.14616543 C79.97684421 246.16091332 76.4316523 246.1507432 72.88603032 246.13642871 C69.05980636 246.12531899 65.23364475 246.13726146 61.40742493 246.14627075 C53.91475095 246.16020485 46.4222455 246.15264601 38.92957955 246.13759517 C30.20560483 246.12073768 21.48167212 246.12394496 12.75768615 246.12768925 C-2.8065504 246.13356805 -18.37070604 246.119395 -33.93492126 246.09474182 C-49.0410719 246.07081686 -64.14711446 246.06373914 -79.25328064 246.07423401 C-95.70059728 246.08564015 -112.14786394 246.08757737 -128.59517998 246.07313591 C-130.34851737 246.07161006 -132.10185478 246.0700897 -133.85519218 246.06857491 C-134.71788521 246.06781709 -135.58057824 246.06705928 -136.46941348 246.0662785 C-142.55206081 246.06153364 -148.63468584 246.06338851 -154.71733284 246.0676403 C-162.12814123 246.07256403 -169.53884739 246.06659563 -176.94963235 246.04674601 C-180.73151523 246.03686627 -184.51324237 246.0317762 -188.29513359 246.03963852 C-192.39201279 246.04798152 -196.48847593 246.03313084 -200.58532715 246.01586914 C-202.38414198 246.02488421 -202.38414198 246.02488421 -204.21929651 246.0340814 C-205.86413331 246.02142149 -205.86413331 246.02142149 -207.54219913 246.00850582 C-208.4878678 246.00747669 -209.43353647 246.00644756 -210.40786177 246.00538725 C-213.56316246 245.55130512 -215.45754897 244.48320183 -218.02891541 242.62818909 C-219.99860738 238.68880513 -219.96906791 234.87804711 -219.02891541 230.62818909 C-217.23570251 228.58766174 -217.23570251 228.58766174 -214.80625916 226.60475159 C-210.55293647 222.98057172 -206.52470004 219.24226914 -202.58360291 215.28053284 C-202.03740799 214.73317978 -201.49121307 214.18582672 -200.9284668 213.62188721 C-199.25147908 211.93859901 -197.57763429 210.25222691 -195.90391541 208.56568909 C-194.74529829 207.40204156 -193.5864455 206.23862862 -192.42735291 205.07545471 C-189.62515777 202.26238844 -186.82614227 199.44619535 -184.02891541 196.62818909 C-181.61708008 200.24594208 -181.78364449 201.90917683 -181.79844666 206.21022034 C-181.79890488 206.86084946 -181.7993631 207.51147858 -181.79983521 208.18182373 C-181.80285682 209.56459874 -181.81074048 210.94737036 -181.82310486 212.33009338 C-181.84101975 214.39508361 -181.84361659 216.4596147 -181.84336853 218.52467346 C-181.87531022 227.29471648 -182.40104971 235.83806935 -183.02891541 244.62818909 C-100.85891541 244.29818909 -18.68891541 243.96818909 65.97108459 243.62818909 C65.97108459 242.96818909 65.97108459 242.30818909 65.97108459 241.62818909 C65.31108459 241.62818909 64.65108459 241.62818909 63.97108459 241.62818909 C63.97108459 240.96818909 63.97108459 240.30818909 63.97108459 239.62818909 C63.31108459 239.62818909 62.65108459 239.62818909 61.97108459 239.62818909 C61.64108459 238.63818909 61.31108459 237.64818909 60.97108459 236.62818909 C59.98108459 236.29818909 58.99108459 235.96818909 57.97108459 235.62818909 C57.97108459 234.30818909 57.97108459 232.98818909 57.97108459 231.62818909 C56.98108459 231.62818909 55.99108459 231.62818909 54.97108459 231.62818909 C53.93855261 229.98147859 52.94538124 228.31001067 51.97108459 226.62818909 C50.26713849 224.81299809 48.51252947 223.04458352 46.72108459 221.31568909 C42.23667856 216.93064212 38.03900413 212.39909011 33.97108459 207.62818909 C32.53862119 205.97797025 31.1010341 204.33218628 29.65858459 202.69068909 C29.00245178 201.93916565 28.34631897 201.18764221 27.67030334 200.41334534 C26.08153611 198.54194712 26.08153611 198.54194712 23.97108459 197.62818909 C23.66170959 196.63818909 23.35233459 195.64818909 23.03358459 194.62818909 C22.68295959 193.63818909 22.33233459 192.64818909 21.97108459 191.62818909 C20.98108459 191.29818909 19.99108459 190.96818909 18.97108459 190.62818909 C18.97108459 189.96818909 18.97108459 189.30818909 18.97108459 188.62818909 C17.98108459 188.62818909 16.99108459 188.62818909 15.97108459 188.62818909 C16.30108459 187.96818909 16.63108459 187.30818909 16.97108459 186.62818909 C30.17108459 186.95818909 43.37108459 187.28818909 56.97108459 187.62818909 C56.97108459 129.87818909 56.97108459 72.12818909 56.97108459 12.62818909 C21.29016068 7.62333173 21.29016068 7.62333173 -8.02891541 17.62818909 C-10.10602347 17.84446949 -12.18701645 18.04928569 -14.27378845 18.13014221 C-19.23059224 18.38639712 -24.08728274 18.6748699 -27.73252869 22.34205627 C-30.7784691 26.71440521 -32.90434842 31.52621024 -35.01475525 36.40211487 C-36.42683645 39.5016229 -38.15467459 42.22188173 -40.02891541 45.06568909 C-40.56516541 45.88940002 -41.10141541 46.71311096 -41.65391541 47.56178284 C-42.77804207 49.25116637 -43.90331437 50.93978754 -45.02891541 52.62818909 C-45.68891541 52.62818909 -46.34891541 52.62818909 -47.02891541 52.62818909 C-46.04448054 45.66580918 -42.78548434 39.18994671 -40.09532166 32.75318909 C-38.83008188 29.71436931 -37.72512034 26.7430066 -36.86875916 23.56568909 C-35.66515409 19.76937202 -34.81304323 17.49975233 -32.02891541 14.62818909 C-27.08698568 12.68085366 -21.92399766 12.12244664 -16.68125916 11.53443909 C-12.01145972 10.87902864 -9.98863921 9.40794645 -7.02891541 5.62818909 C-6.46148117 4.76013138 -5.89404694 3.89207367 -5.30941772 2.99771118 C-3.02891541 0.62818909 -3.02891541 0.62818909 0 0 Z " fill="#065699" transform="translate(582.0289154052734,364.37181091308594)"/>
<path d="M0 0 C6.90717515 -0.27710807 13.79479626 -0.51525617 20.703125 -0.65917969 C23.04689124 -0.71919353 25.39021449 -0.80083963 27.73242188 -0.90527344 C49.32125796 -1.84311896 49.32125796 -1.84311896 55.87225342 4.14801025 C58.15792158 6.63704184 60.07443687 9.21865623 62 12 C63.19078278 13.3696252 64.39457106 14.72837803 65.625 16.0625 C66.14449219 16.67351563 66.66398438 17.28453125 67.19921875 17.9140625 C70.39493258 21.61582212 73.74200854 25.18396454 77.05859375 28.77734375 C79 31 79 31 79 32 C52.93 32 26.86 32 0 32 C0 21.44 0 10.88 0 0 Z " fill="#F6FAFD" transform="translate(494,563)"/>
<path d="M0 0 C1.19710602 -0.01189865 2.39421204 -0.0237973 3.62759399 -0.03605652 C6.15760247 -0.05259084 8.68772638 -0.05595984 11.21777344 -0.04711914 C15.0820599 -0.04298959 18.94111451 -0.10803836 22.8046875 -0.17773438 C25.26561578 -0.18521565 27.7265606 -0.18860584 30.1875 -0.1875 C31.91436539 -0.22590752 31.91436539 -0.22590752 33.67611694 -0.26509094 C41.5332629 -0.15254372 41.5332629 -0.15254372 45.02374268 2.54458618 C47.32641816 5.12940753 49.17910665 7.67461956 50.7265625 10.76953125 C52.66022092 11.22718561 52.66022092 11.22718561 54.98828125 11.41796875 C68.99741403 13.20222426 68.99741403 13.20222426 73.10546875 16.92578125 C74.37991794 19.45289417 75.31322044 21.90531717 76.08105469 24.62744141 C76.87227941 27.25308655 77.84382153 29.78430353 78.828125 32.34375 C80.31641282 36.2458746 81.7844332 40.15226588 83.1875 44.0859375 C83.63295166 45.33032593 83.63295166 45.33032593 84.08740234 46.59985352 C84.7265625 48.76953125 84.7265625 48.76953125 84.7265625 51.76953125 C84.0665625 51.76953125 83.4065625 51.76953125 82.7265625 51.76953125 C81.38549805 50.00048828 81.38549805 50.00048828 79.86328125 47.52734375 C79.30576172 46.625 78.74824219 45.72265625 78.17382812 44.79296875 C77.30274414 43.35824219 77.30274414 43.35824219 76.4140625 41.89453125 C75.84494141 40.97671875 75.27582031 40.05890625 74.68945312 39.11328125 C71.89145156 34.55167136 69.43062823 30.11949418 67.33984375 25.19140625 C65.73946801 21.85619172 65.73946801 21.85619172 62.8269043 19.77099609 C60.59902679 19.25504508 58.50905754 19.02067951 56.2265625 18.89453125 C54.73565774 18.765783 53.24589873 18.62287061 51.7578125 18.46484375 C51.10361328 18.42375488 50.44941406 18.38266602 49.77539062 18.34033203 C47.7265625 17.76953125 47.7265625 17.76953125 45.6340332 15.76416016 C41.30342829 12.79321028 37.31525945 13.16659713 32.17578125 13.16015625 C31.16183792 13.14362 30.14789459 13.12708374 29.10322571 13.11004639 C25.873443 13.06156783 22.64413117 13.04019523 19.4140625 13.01953125 C17.22067944 12.99137153 15.02731831 12.96144411 12.83398438 12.9296875 C7.46462717 12.85248902 2.09675675 12.81196661 -3.2734375 12.76953125 C-3.2734375 25.96953125 -3.2734375 39.16953125 -3.2734375 52.76953125 C-4.7584375 53.26453125 -4.7584375 53.26453125 -6.2734375 53.76953125 C-6.2734375 53.10953125 -6.2734375 52.44953125 -6.2734375 51.76953125 C-6.9128125 52.07890625 -7.5521875 52.38828125 -8.2109375 52.70703125 C-12.19392854 54.08888528 -16.08994599 54.42318555 -20.2734375 54.76953125 C-19.9434375 54.10953125 -19.6134375 53.44953125 -19.2734375 52.76953125 C-18.6134375 52.76953125 -17.9534375 52.76953125 -17.2734375 52.76953125 C-17.28454056 52.19181473 -17.29564362 51.61409821 -17.30708313 51.01887512 C-17.41778561 45.00061519 -17.49314955 38.98264489 -17.5480957 32.96362305 C-17.57322473 30.71806081 -17.60733365 28.47258025 -17.65063477 26.22729492 C-17.71135526 22.99767907 -17.73966381 19.76914541 -17.76171875 16.5390625 C-17.78752518 15.5368013 -17.8133316 14.5345401 -17.83992004 13.50190735 C-17.84166247 9.16217199 -17.66828833 6.46925305 -15.51000977 2.64453125 C-10.4895563 -0.26390072 -5.70889858 -0.00350844 0 0 Z " fill="#05569A" transform="translate(416.2734375,364.23046875)"/>
<path d="M0 0 C2.41183533 3.61775299 2.24527091 5.28098774 2.23046875 9.58203125 C2.23001053 10.23266037 2.22955231 10.88328949 2.2290802 11.55363464 C2.22605859 12.93640965 2.21817493 14.31918127 2.20581055 15.7019043 C2.18789565 17.76689452 2.18529882 19.83142562 2.18554688 21.89648438 C2.15360519 30.6665274 1.6278657 39.20988026 1 48 C94.39 48 187.78 48 284 48 C284 48.33 284 48.66 284 49 C244.2107719 49.06863468 204.4215515 49.1215128 164.63227605 49.15319599 C159.93706089 49.1569482 155.24184584 49.16083116 150.54663086 49.16479492 C149.61187999 49.16558185 148.67712912 49.16636878 147.71405246 49.16717956 C132.56957396 49.18024107 117.42512954 49.203899 102.28067128 49.23145839 C86.74636879 49.25949188 71.21208419 49.2761719 55.67775744 49.28226548 C46.08869941 49.2863862 36.49973773 49.29941109 26.91070934 49.3237494 C20.33924955 49.33958122 13.76783972 49.34440616 7.19636223 49.34050413 C3.40235246 49.33857859 -0.39148871 49.34157442 -4.18546867 49.35761642 C-8.29576915 49.37486935 -12.40570867 49.36897916 -16.51603699 49.36076355 C-18.3209909 49.37387134 -18.3209909 49.37387134 -20.16240853 49.38724393 C-21.26266659 49.38127078 -22.36292465 49.37529764 -23.49652386 49.36914349 C-24.91990552 49.37085223 -24.91990552 49.37085223 -26.37204236 49.37259549 C-29.5341813 48.92426303 -31.42476225 47.85949333 -34 46 C-35.96969198 42.06061604 -35.94015251 38.24985802 -35 34 C-33.20678711 31.95947266 -33.20678711 31.95947266 -30.77734375 29.9765625 C-26.52402106 26.35238263 -22.49578463 22.61408005 -18.5546875 18.65234375 C-18.00849258 18.10499069 -17.46229767 17.55763763 -16.89955139 16.99369812 C-15.22256367 15.31040992 -13.54871888 13.62403783 -11.875 11.9375 C-10.71638288 10.77385247 -9.5575301 9.61043954 -8.3984375 8.44726562 C-5.59624236 5.63419935 -2.79722686 2.81800626 0 0 Z " fill="#3171AF" transform="translate(398,561)"/>
<path d="M0 0 C4.88840376 3.54609617 9.09431057 7.89139585 10.625 13.875 C11.69679947 21.14585585 9.81647095 26.88569113 5.625 32.875 C-0.5515139 38.78120694 -6.632596 39.28657299 -14.84765625 39.21875 C-19.75385614 38.74062642 -22.85104682 37.28355925 -26.375 33.875 C-31.83815613 26.87095368 -32.09632998 20.5205057 -31.375 11.875 C-29.6883993 5.82687138 -24.61982288 1.92765082 -19.375 -1.125 C-13.11522866 -3.21159045 -5.74793203 -3.40941976 0 0 Z " fill="#0E497C" transform="translate(339.375,685.125)"/>
<path d="M0 0 C5.77957616 -0.29900308 11.55456433 -0.51541616 17.34008789 -0.65917969 C19.30280019 -0.71914921 21.26498487 -0.80076514 23.22583008 -0.90527344 C40.39220112 -1.79657904 40.39220112 -1.79657904 45.46948242 2.38623047 C48.36114203 5.31455253 50.62986836 8.64539863 53 12 C54.63166459 13.71750827 56.30115101 15.40012322 58.01171875 17.0390625 C58.78837891 17.80347656 59.56503906 18.56789063 60.36523438 19.35546875 C61.95491605 20.90905168 63.5461377 22.46105998 65.13867188 24.01171875 C65.90115234 24.76324219 66.66363281 25.51476562 67.44921875 26.2890625 C68.13330811 26.95631348 68.81739746 27.62356445 69.5222168 28.31103516 C71 30 71 30 71 32 C31.47799544 34.60065833 31.47799544 34.60065833 23.1171875 28.94140625 C19.85876903 25.96461724 17.34913947 22.60127254 15.09619141 18.81591797 C13.67071302 16.45451302 11.90091472 14.55145708 10 12.5625 C8.9984788 11.37628268 7.99847386 10.1887835 7 9 C5.09830227 6.85255604 3.19266673 4.70868725 1.28515625 2.56640625 C0 1 0 1 0 0 Z " fill="#F8FBFD" transform="translate(609,563)"/>
<path d="M0 0 C10.39615851 -0.02313662 20.79231093 -0.04092185 31.18848991 -0.05181217 C36.01548037 -0.0570381 40.84245325 -0.06413052 45.66943359 -0.07543945 C50.32485248 -0.0862786 54.98025444 -0.09227903 59.63568497 -0.09487724 C61.41474804 -0.09672963 63.19381016 -0.1003467 64.97286606 -0.10573006 C67.45833107 -0.11295409 69.94372546 -0.11399036 72.42919922 -0.11352539 C73.54050201 -0.1189183 73.54050201 -0.1189183 74.67425537 -0.12442017 C79.77189568 -0.11405216 79.77189568 -0.11405216 82 1 C82 1.66 82 2.32 82 3 C82.66 3 83.32 3 84 3 C84.99 5.97 84.99 5.97 86 9 C86.66 9 87.32 9 88 9 C88 9.66 88 10.32 88 11 C89.32 11.66 90.64 12.32 92 13 C92 13.33 92 13.66 92 14 C61.64 14 31.28 14 0 14 C0 9.38 0 4.76 0 0 Z " fill="#065597" transform="translate(494,595)"/>
<path d="M0 0 C3.485625 -0.061875 6.97125 -0.12375 10.5625 -0.1875 C12.18973999 -0.22846802 12.18973999 -0.22846802 13.84985352 -0.27026367 C19.70459101 -0.32035019 23.86147717 0.11941663 29 3 C33.34985941 7.57879938 34.39959392 11.48713018 34.359375 17.640625 C33.73817429 21.71894268 31.68702544 23.92911378 29 27 C28.34 27.33 27.68 27.66 27 28 C28.56641751 32.30764815 30.68336156 36.06171464 33 40 C27.86321923 40.79708667 27.86321923 40.79708667 25 40 C23.5546875 38.03125 23.5546875 38.03125 22.25 35.5625 C20.94254192 33.02162997 20.94254192 33.02162997 19 31 C14.97154489 29.9126278 11.15411564 29.83195325 7 30 C7 33.3 7 36.6 7 40 C4.69 40 2.38 40 0 40 C0 26.8 0 13.6 0 0 Z " fill="#0A467E" transform="translate(691,684)"/>
<path d="M0 0 C5.506875 -0.12375 5.506875 -0.12375 11.125 -0.25 C12.2711377 -0.28641602 13.41727539 -0.32283203 14.59814453 -0.36035156 C20.76716362 -0.42741788 24.31201944 -0.11720371 29 4 C29.78375 4.680625 30.5675 5.36125 31.375 6.0625 C33.88988138 10.60863172 33.60482597 14.92244861 33 20 C31.284735 25.24108749 28.78735431 27.36207007 24 30 C20.42990969 31.21367309 16.99589093 31.09995891 13.25 31.0625 C12.07953125 31.05347656 10.9090625 31.04445313 9.703125 31.03515625 C8.81109375 31.02355469 7.9190625 31.01195312 7 31 C7 33.97 7 36.94 7 40 C4.69 40 2.38 40 0 40 C0 26.8 0 13.6 0 0 Z " fill="#06427C" transform="translate(450,684)"/>
<path d="M0 0 C8 0 8 0 10.16162109 1.91186523 C10.69352051 2.78528564 11.22541992 3.65870605 11.7734375 4.55859375 C12.37027344 5.50154297 12.96710938 6.44449219 13.58203125 7.41601562 C14.17371094 8.41310547 14.76539063 9.41019531 15.375 10.4375 C16.58782945 12.39658824 17.80381451 14.35372758 19.0234375 16.30859375 C19.54856934 17.18314209 20.07370117 18.05769043 20.61474609 18.95874023 C21.84152497 21.12450107 21.84152497 21.12450107 24 22 C24.3403125 21.00033203 24.3403125 21.00033203 24.6875 19.98046875 C26.38753928 16.11996288 28.63590688 12.79447144 31 9.3125 C31.67675781 8.29833008 31.67675781 8.29833008 32.3671875 7.26367188 C34.13617337 4.63374466 35.7522666 2.2477334 38 0 C40.64 0 43.28 0 46 0 C46 13.2 46 26.4 46 40 C43.36 40 40.72 40 38 40 C37.505 27.13 37.505 27.13 37 14 C34.586875 17.6196875 34.586875 17.6196875 32.125 21.3125 C30.75390625 23.36914062 30.75390625 23.36914062 29.3828125 25.42578125 C28.97434082 26.03848877 28.56586914 26.65119629 28.14501953 27.2824707 C27.09667969 28.85498047 26.04833984 30.42749023 25 32 C22.75390625 31.85546875 22.75390625 31.85546875 20 31 C17.90234375 28.48828125 17.90234375 28.48828125 15.9375 25.3125 C15.28652344 24.27738281 14.63554687 23.24226562 13.96484375 22.17578125 C13.31644531 21.12777344 12.66804688 20.07976563 12 19 C10.68 17.02 9.36 15.04 8 13 C7.67 21.91 7.34 30.82 7 40 C4.69 40 2.38 40 0 40 C0 26.8 0 13.6 0 0 Z " fill="#0E4C81" transform="translate(376,684)"/>
<path d="M0 0 C10.23 0 20.46 0 31 0 C31 2.31 31 4.62 31 7 C23.41 7 15.82 7 8 7 C8 9.97 8 12.94 8 16 C13.94 16 19.88 16 26 16 C26 18.31 26 20.62 26 23 C20.06 23 14.12 23 8 23 C8 26.3 8 29.6 8 33 C15.59 33 23.18 33 31 33 C31 35.31 31 37.62 31 40 C20.77 40 10.54 40 0 40 C0 26.8 0 13.6 0 0 Z " fill="#05437D" transform="translate(634,684)"/>
<path d="M0 0 C1.44613419 0.64772418 2.88727375 1.30748226 4.3125 2 C4.3125 6 4.3125 6 2.8125 7.75 C2.3175 8.1625 1.8225 8.575 1.3125 9 C0.61511719 8.51144531 -0.08226562 8.02289062 -0.80078125 7.51953125 C-4.11216782 5.77646038 -6.16106704 5.62752344 -9.875 5.6875 C-10.92042969 5.69136719 -11.96585938 5.69523438 -13.04296875 5.69921875 C-15.84221435 5.73960235 -15.84221435 5.73960235 -17.6875 8 C-17.6875 9.32 -17.6875 10.64 -17.6875 12 C-17.10258789 12.16081055 -16.51767578 12.32162109 -15.91503906 12.48730469 C-13.25183262 13.22784722 -10.59483496 13.98866987 -7.9375 14.75 C-7.01710938 15.00265625 -6.09671875 15.2553125 -5.1484375 15.515625 C3.72926989 18.08887352 3.72926989 18.08887352 6.3125 22 C7.3513371 26.69768245 6.97726069 30.81820322 4.625 35 C-0.90062848 39.77892193 -6.910463 39.46418299 -13.92578125 39.40234375 C-19.05162787 38.8540964 -22.62039374 37.08615109 -26.6875 34 C-24.9375 29.125 -24.9375 29.125 -22.6875 28 C-21.718125 28.639375 -20.74875 29.27875 -19.75 29.9375 C-15.0432605 32.8011794 -10.04645164 32.73386917 -4.6875 32 C-3.6975 31.34 -2.7075 30.68 -1.6875 30 C-2.1825 27.525 -2.1825 27.525 -2.6875 25 C-3.86828125 24.66226563 -5.0490625 24.32453125 -6.265625 23.9765625 C-7.82297529 23.52624434 -9.38026373 23.07571229 -10.9375 22.625 C-12.10345703 22.29242187 -12.10345703 22.29242187 -13.29296875 21.953125 C-14.04707031 21.73398437 -14.80117188 21.51484375 -15.578125 21.2890625 C-16.26938477 21.09006348 -16.96064453 20.89106445 -17.67285156 20.68603516 C-20.57819442 19.69669761 -23.03832576 18.84392651 -24.9375 16.375 C-26.04722703 12.8608644 -26.37383724 9.60500368 -25.6875 6 C-20.1926978 -3.98258885 -9.53318935 -3.82412432 0 0 Z " fill="#134D81" transform="translate(776.6875,685)"/>
<path d="M0 0 C2.31 0 4.62 0 7 0 C7.0093457 0.79172607 7.01869141 1.58345215 7.02832031 2.39916992 C7.08209344 5.99590708 7.16572963 9.59135352 7.25 13.1875 C7.26417969 14.43337891 7.27835938 15.67925781 7.29296875 16.96289062 C7.32519531 18.16494141 7.35742188 19.36699219 7.390625 20.60546875 C7.41157227 21.71043701 7.43251953 22.81540527 7.45410156 23.95385742 C8.11481484 27.64067297 9.42341671 29.32967344 12 32 C15.20860529 33.60430264 18.5190457 33.48105318 22 33 C26.09045096 30.59908313 27.54406746 28.42471351 29 24 C29.36051198 21.20225011 29.36051198 21.20225011 29.4140625 18.26171875 C29.45273437 17.19501953 29.49140625 16.12832031 29.53125 15.02929688 C29.5621875 13.92650391 29.593125 12.82371094 29.625 11.6875 C29.66367187 10.56537109 29.70234375 9.44324219 29.7421875 8.28710938 C29.83622011 5.52490148 29.92187341 2.762696 30 0 C32.31 0 34.62 0 37 0 C37.08760181 4.18736668 37.14059435 8.37449531 37.1875 12.5625 C37.21263672 13.74392578 37.23777344 14.92535156 37.26367188 16.14257812 C37.33154668 24.2196805 36.99862867 29.54004384 31.5625 35.8125 C26.12944973 40.45046974 21.53886577 40.55133505 14.49609375 40.44140625 C9.45119537 39.8044526 6.12358554 38.02053454 3 34 C-0.96054234 27.35650962 -0.34195137 20.61477614 -0.1875 13.0625 C-0.17396484 11.80630859 -0.16042969 10.55011719 -0.14648438 9.25585938 C-0.11128591 6.17012721 -0.06204305 3.08528976 0 0 Z " fill="#175185" transform="translate(510,684)"/>
<path d="M0 0 C0.33 0 0.66 0 1 0 C1 44.55 1 89.1 1 135 C14.86 135 28.72 135 43 135 C43.66 136.65 44.32 138.3 45 140 C45.66 140.33 46.32 140.66 47 141 C47 141.66 47 142.32 47 143 C48.32 143.66 49.64 144.32 51 145 C51 145.33 51 145.66 51 146 C34.5 146 18 146 1 146 C-0.125 135.875 -0.125 135.875 -0.12025452 130.71665955 C-0.12231651 128.96899292 -0.12231651 128.96899292 -0.12442017 127.1860199 C-0.12082489 125.9373262 -0.11722961 124.68863251 -0.11352539 123.40209961 C-0.1132428 122.05103558 -0.11340266 120.69997141 -0.1139679 119.34890747 C-0.11425306 115.70698091 -0.10840186 112.06508775 -0.10139394 108.4231689 C-0.09511353 104.6075182 -0.09455291 100.79186662 -0.09336853 96.97621155 C-0.09026898 89.76227141 -0.08207424 82.54834655 -0.07201904 75.33441311 C-0.06081504 67.1167087 -0.05533668 58.89900353 -0.05032361 50.68129337 C-0.03989039 33.7875201 -0.02231775 16.89376167 0 0 Z " fill="#145999" transform="translate(493,417)"/>
<path d="M0 0 C4.08604887 1.83872199 6.48383145 4.21742188 8.9375 7.9375 C10.38231507 12.10196696 10.92792766 14.91811101 9.0859375 19.05078125 C6.48787109 23.63511133 4.17856486 26.34285925 -1 28 C-7.03602607 28.7682215 -10.18977364 27.42266107 -15 24 C-18.43626263 20.23119582 -18.51209617 16.34107394 -18.3515625 11.4375 C-17.67607752 6.75413746 -15.29923939 4.11363377 -11.8125 1.125 C-7.77383323 -0.49046671 -4.28500469 -0.7777577 0 0 Z " fill="#F5F9FB" transform="translate(333,690)"/>
<path d="M0 0 C2.05859375 0.3359375 2.05859375 0.3359375 4.05859375 2.3359375 C4.25390625 4.71875 4.25390625 4.71875 4.18359375 7.4609375 C4.16554688 8.37101562 4.1475 9.28109375 4.12890625 10.21875 C4.10570312 10.91742188 4.0825 11.61609375 4.05859375 12.3359375 C2.07859375 13.3259375 2.07859375 13.3259375 0.05859375 14.3359375 C0.05859375 38.4259375 0.05859375 62.5159375 0.05859375 87.3359375 C-1.92140625 87.3359375 -3.90140625 87.3359375 -5.94140625 87.3359375 C-5.94140625 62.9159375 -5.94140625 38.4959375 -5.94140625 13.3359375 C-7.26140625 12.6759375 -8.58140625 12.0159375 -9.94140625 11.3359375 C-10.13936009 7.90473761 -10.24752591 5.13184862 -9.00390625 1.8984375 C-6.07090598 -0.3235324 -3.59480187 -0.05902795 0 0 Z " fill="#054F8F" transform="translate(520.94140625,328.6640625)"/>
<path d="M0 0 C2.11254985 1.50432121 2.81351467 2.88851288 3.77734375 5.265625 C2.78734375 6.255625 1.79734375 7.245625 0.77734375 8.265625 C-4.97265625 6.390625 -4.97265625 6.390625 -7.22265625 5.265625 C-11.98648826 4.68443749 -15.36753739 4.81474415 -19.66015625 7.078125 C-22.4695417 9.47638087 -24.07800646 11.05206963 -24.5234375 14.7890625 C-24.74158821 22.12088604 -24.74158821 22.12088604 -21.22265625 28.265625 C-16.82947729 31.16112931 -13.43797042 31.82440866 -8.22265625 31.265625 C-5.0055268 29.90748493 -5.0055268 29.90748493 -2.22265625 28.265625 C-1.23265625 27.935625 -0.24265625 27.605625 0.77734375 27.265625 C2.33984375 29.078125 2.33984375 29.078125 3.77734375 31.265625 C2.77734375 34.265625 2.77734375 34.265625 -0.41015625 36.453125 C-6.41349313 39.24386539 -12.76011257 39.13934885 -19.22265625 38.265625 C-25.37097885 35.95763929 -29.31561996 31.69829031 -32.47265625 26.015625 C-34.32323236 19.23017927 -33.61339209 13.46248705 -30.22265625 7.265625 C-22.35581056 -3.87907306 -12.09909567 -5.51351195 0 0 Z " fill="#0D4A82" transform="translate(280.22265625,685.734375)"/>
<path d="M0 0 C11.88 0 23.76 0 36 0 C36 2.31 36 4.62 36 7 C31.05 7 26.1 7 21 7 C21 17.89 21 28.78 21 40 C18.69 40 16.38 40 14 40 C14 29.11 14 18.22 14 7 C9.38 7 4.76 7 0 7 C0 4.69 0 2.38 0 0 Z " fill="#295E8D" transform="translate(573,684)"/>
<path d="M0 0 C0 9.24 0 18.48 0 28 C-9.24 28 -18.48 28 -28 28 C-24.32750234 23.7154194 -20.81271048 19.68519905 -16.85546875 15.72265625 C-15.47004883 14.33530273 -15.47004883 14.33530273 -14.05664062 12.91992188 C-13.58589111 12.45126709 -13.1151416 11.9826123 -12.63012695 11.49975586 C-11.16953741 10.04460429 -9.71446797 8.58408143 -8.25976562 7.12304688 C-7.34259766 6.20716797 -6.42542969 5.29128906 -5.48046875 4.34765625 C-4.64410889 3.51242432 -3.80774902 2.67719238 -2.94604492 1.81665039 C-1 0 -1 0 0 0 Z " fill="#F6FCFD" transform="translate(399,567)"/>
<path d="M0 0 C0.45632813 0.6290625 0.91265625 1.258125 1.3828125 1.90625 C4.67181009 4.53744808 7.06250392 4.6627521 11.15917969 5.15966797 C22.42614483 6.57158359 22.42614483 6.57158359 26.3671875 10.1484375 C27.65036785 12.67855017 28.58491792 15.12961721 29.35449219 17.85791016 C30.14571691 20.4835553 31.11725903 23.01477228 32.1015625 25.57421875 C33.58985032 29.47634335 35.0578707 33.38273463 36.4609375 37.31640625 C36.90638916 38.56079468 36.90638916 38.56079468 37.36083984 39.83032227 C38 42 38 42 38 45 C37.34 45 36.68 45 36 45 C34.65893555 43.23095703 34.65893555 43.23095703 33.13671875 40.7578125 C32.57919922 39.85546875 32.02167969 38.953125 31.44726562 38.0234375 C30.86654297 37.06695312 30.28582031 36.11046875 29.6875 35.125 C29.11837891 34.2071875 28.54925781 33.289375 27.96289062 32.34375 C25.16627394 27.78439788 22.70780497 23.3565953 20.62109375 18.4296875 C19.00221487 15.07646418 19.00221487 15.07646418 16.06811523 12.96923828 C13.81031628 12.41590351 11.69345531 12.15429993 9.375 12 C1.19409548 11.12939698 1.19409548 11.12939698 -2 9 C-2 8.01 -2 7.02 -2 6 C-1.34 6 -0.68 6 0 6 C0 4.02 0 2.04 0 0 Z " fill="#0F568F" transform="translate(463,371)"/>
<path d="M0 0 C7.41459942 -0.02312883 14.82919111 -0.04091785 22.24381924 -0.05181217 C25.68640348 -0.05703982 29.12896312 -0.06413531 32.5715332 -0.07543945 C36.52555043 -0.08834235 40.47955756 -0.09322918 44.43359375 -0.09765625 C46.29605995 -0.10539818 46.29605995 -0.10539818 48.19615173 -0.11329651 C49.33725906 -0.11337204 50.47836639 -0.11344757 51.65405273 -0.11352539 C52.664431 -0.115746 53.67480927 -0.11796661 54.71580505 -0.12025452 C57 0 57 0 58 1 C58 2.65 58 4.3 58 6 C38.86 6 19.72 6 0 6 C0 4.02 0 2.04 0 0 Z " fill="#4177B1" transform="translate(502,584)"/>
<path d="M0 0 C0 3.86695678 -1.41909971 6.5088452 -3 10 C-2.34 10 -1.68 10 -1 10 C-1 10.66 -1 11.32 -1 12 C-2.18335938 12.00773437 -3.36671875 12.01546875 -4.5859375 12.0234375 C-13.39047011 12.4060943 -13.39047011 12.4060943 -20.72119141 16.73144531 C-23.76090667 21.09663561 -25.87914514 25.90659769 -27.98583984 30.77392578 C-29.39792104 33.87343381 -31.12575918 36.59369265 -33 39.4375 C-33.53625 40.26121094 -34.0725 41.08492188 -34.625 41.93359375 C-35.74912666 43.62297728 -36.87439897 45.31159845 -38 47 C-38.66 47 -39.32 47 -40 47 C-39.01556514 40.03762009 -35.75656893 33.56175763 -33.06640625 27.125 C-31.80116648 24.08618022 -30.69620494 21.11481752 -29.83984375 17.9375 C-28.63623868 14.14118293 -27.78412783 11.87156325 -25 9 C-20.05807028 7.05266458 -14.89508225 6.49425755 -9.65234375 5.90625 C-4.85013619 5.26608268 -2.95087868 3.77908788 0 0 Z " fill="#145A92" transform="translate(575,370)"/>
<path d="M0 0 C20.13 0 40.26 0 61 0 C61 57.75 61 115.5 61 175 C47.8 175 34.6 175 21 175 C21 174.67 21 174.34 21 174 C33.87 174 46.74 174 60 174 C59.67 131.1 59.34 88.2 59 44 C54.17383042 47.37538901 54.17383042 47.37538901 52.5625 50.4375 C50.46745267 53.87337761 48.28889742 55.67036433 45 58 C44.01 57.67 43.02 57.34 42 57 C44.61691164 54.32529045 47.24481708 51.66165519 49.875 49 C50.62136719 48.236875 51.36773438 47.47375 52.13671875 46.6875 C52.85214844 45.965625 53.56757812 45.24375 54.3046875 44.5 C54.96452637 43.8296875 55.62436523 43.159375 56.30419922 42.46875 C58 41 58 41 60 41 C60 27.8 60 14.6 60 1 C40.2 1 20.4 1 0 1 C0 0.67 0 0.34 0 0 Z " fill="#A4C8F0" transform="translate(578,377)"/>
<path d="M0 0 C2.3925 -0.0825 4.785 -0.165 7.25 -0.25 C7.99668945 -0.28641602 8.74337891 -0.32283203 9.51269531 -0.36035156 C12.87419799 -0.41640674 14.70251494 -0.21411345 17.453125 1.765625 C19.52920228 4.76440329 19.57003517 6.55350429 19.3984375 10.09765625 C18.79104423 12.99766139 17.33500208 14.28308671 15 16 C10.73840618 18.13079691 4.59236298 17.04502317 0 17 C0 11.39 0 5.78 0 0 Z " fill="#F0F6FA" transform="translate(457,691)"/>
<path d="M0 0 C2.05859375 0.3359375 2.05859375 0.3359375 4.05859375 2.3359375 C4.25390625 4.71875 4.25390625 4.71875 4.18359375 7.4609375 C4.16554688 8.37101562 4.1475 9.28109375 4.12890625 10.21875 C4.10570312 10.91742188 4.0825 11.61609375 4.05859375 12.3359375 C2.07859375 13.3259375 2.07859375 13.3259375 0.05859375 14.3359375 C0.05859375 23.9059375 0.05859375 33.4759375 0.05859375 43.3359375 C-0.27140625 43.3359375 -0.60140625 43.3359375 -0.94140625 43.3359375 C-0.94140625 34.7559375 -0.94140625 26.1759375 -0.94140625 17.3359375 C-1.93140625 17.6659375 -2.92140625 17.9959375 -3.94140625 18.3359375 C-4.27140625 41.1059375 -4.60140625 63.8759375 -4.94140625 87.3359375 C-5.27140625 87.3359375 -5.60140625 87.3359375 -5.94140625 87.3359375 C-5.94140625 62.9159375 -5.94140625 38.4959375 -5.94140625 13.3359375 C-7.26140625 12.6759375 -8.58140625 12.0159375 -9.94140625 11.3359375 C-10.13936009 7.90473761 -10.24752591 5.13184862 -9.00390625 1.8984375 C-6.07090598 -0.3235324 -3.59480187 -0.05902795 0 0 Z " fill="#0A518B" transform="translate(520.94140625,328.6640625)"/>
<path d="M0 0 C3.58875 -0.0928125 3.58875 -0.0928125 7.25 -0.1875 C8.37003418 -0.22846802 8.37003418 -0.22846802 9.51269531 -0.27026367 C12.54495565 -0.30818732 14.73043482 -0.13564108 17.453125 1.234375 C19.37905245 3.43265583 19.53908469 4.54034761 19.5 7.4375 C19.5103125 8.19933594 19.520625 8.96117187 19.53125 9.74609375 C18.77105721 12.97132346 17.70620598 14.09100438 15 16 C12.2317375 16.29449601 9.98597978 16.38343363 7.25 16.25 C4.8575 16.1675 2.465 16.085 0 16 C0 10.72 0 5.44 0 0 Z " fill="#F4F8FB" transform="translate(698,691)"/>
<path d="M0 0 C10.23 0 20.46 0 31 0 C31 2.31 31 4.62 31 7 C23.41 7 15.82 7 8 7 C8 9.97 8 12.94 8 16 C13.94 16 19.88 16 26 16 C26 18.31 26 20.62 26 23 C20.06 23 14.12 23 8 23 C8 26.3 8 29.6 8 33 C7.67 33 7.34 33 7 33 C7 29.37 7 25.74 7 22 C9.97 22 12.94 22 16 22 C16 21.34 16 20.68 16 20 C15.34 20 14.68 20 14 20 C14 19.34 14 18.68 14 18 C11.69 18 9.38 18 7 18 C7 14.04 7 10.08 7 6 C14.59 6 22.18 6 30 6 C30 4.35 30 2.7 30 1 C20.43 1 10.86 1 1 1 C1 13.54 1 26.08 1 39 C10.9 39 20.8 39 31 39 C31 39.33 31 39.66 31 40 C20.77 40 10.54 40 0 40 C0 26.8 0 13.6 0 0 Z " fill="#587EAA" transform="translate(634,684)"/>
<path d="M0 0 C0.99 0 1.98 0 3 0 C3.51132188 5.01095441 3.61913671 8.77659895 0.625 13 C-2 16 -2 16 -4 17 C-2.43358249 21.30764815 -0.31663844 25.06171464 2 29 C-3.13678077 29.79708667 -3.13678077 29.79708667 -6 29 C-7.4453125 27.03125 -7.4453125 27.03125 -8.75 24.5625 C-10.05745808 22.02162997 -10.05745808 22.02162997 -12 20 C-16.02845511 18.9126278 -19.84588436 18.83195325 -24 19 C-24 18.67 -24 18.34 -24 18 C-19.38 18 -14.76 18 -10 18 C-10 17.01 -10 16.02 -10 15 C-12.70183055 13.64908472 -15.11808206 13.66141942 -18.125 13.4375 C-19.76855469 13.31181641 -19.76855469 13.31181641 -21.4453125 13.18359375 C-22.28835938 13.12300781 -23.13140625 13.06242188 -24 13 C-24 12.67 -24 12.34 -24 12 C-22.95199219 11.96261719 -21.90398438 11.92523437 -20.82421875 11.88671875 C-19.44527695 11.82105485 -18.06637229 11.75460765 -16.6875 11.6875 C-15.65206055 11.65366211 -15.65206055 11.65366211 -14.59570312 11.61914062 C-11.68971363 11.46471606 -9.50756807 11.34383644 -7.0625 9.6875 C-5.35819777 6.98066705 -5.29541856 4.13143668 -5 1 C-4.67 1.66 -4.34 2.32 -4 3 C-3.34 3 -2.68 3 -2 3 C-2 3.66 -2 4.32 -2 5 C-1.34 5 -0.68 5 0 5 C0 3.35 0 1.7 0 0 Z " fill="#1A5383" transform="translate(722,695)"/>
<path d="M0 0 C2.47417002 3.71125503 2.24471623 5.61228795 2.23046875 10.0390625 C2.23001053 10.72052338 2.22955231 11.40198425 2.2290802 12.10409546 C2.22606368 13.54141994 2.2181953 14.97874133 2.20581055 16.41601562 C2.18750983 18.62381471 2.18530123 20.83119535 2.18554688 23.0390625 C2.1474806 33.8525194 2.1474806 33.8525194 1 35 C-3.09644069 35.26578839 -7.19644964 35.27122408 -11.30078125 35.29516602 C-13.3600529 35.31237509 -15.41771703 35.35624432 -17.4765625 35.40039062 C-18.77078125 35.40876953 -20.065 35.41714844 -21.3984375 35.42578125 C-22.59130371 35.44036377 -23.78416992 35.45494629 -25.01318359 35.4699707 C-28 35 -28 35 -31 31 C-20.77 20.77 -10.54 10.54 0 0 Z M-4.22987366 10.09092712 C-5.10801979 10.9721096 -5.10801979 10.9721096 -6.00390625 11.87109375 C-6.60178452 12.46801529 -7.19966278 13.06493683 -7.81565857 13.6799469 C-9.08203176 14.94563805 -10.34713683 16.21259905 -11.61108398 17.48071289 C-13.5540679 19.4290447 -15.50231411 21.37199878 -17.45117188 23.31445312 C-18.67740411 24.54134614 -19.90332613 25.76854931 -21.12890625 26.99609375 C-21.71636124 27.58152451 -22.30381622 28.16695526 -22.90907288 28.77012634 C-25.70390347 31.01962347 -25.70390347 31.01962347 -27 34 C-17.76 34 -8.52 34 1 34 C1 24.76 1 15.52 1 6 C-1.2384055 6 -2.72234756 8.59219307 -4.22987366 10.09092712 Z " fill="#2B668E" transform="translate(398,561)"/>
<path d="M0 0 C0 12.54 0 25.08 0 38 C-1.98 38 -3.96 38 -6 38 C-6.33 27.77 -6.66 17.54 -7 7 C-6.34 7 -5.68 7 -5 7 C-5 5.68 -5 4.36 -5 3 C-5.66 3 -6.32 3 -7 3 C-7 2.34 -7 1.68 -7 1 C-5 0 -5 0 0 0 Z " fill="#04437D" transform="translate(421,685)"/>
<path d="M0 0 C2.31 0 4.62 0 7 0 C7 10.56 7 21.12 7 32 C4.69 32 2.38 32 0 32 C0 21.44 0 10.88 0 0 Z " fill="#EDF4F9" transform="translate(442,563)"/>
<path d="M0 0 C5.506875 -0.12375 5.506875 -0.12375 11.125 -0.25 C12.2711377 -0.28641602 13.41727539 -0.32283203 14.59814453 -0.36035156 C20.70974494 -0.42679365 24.40118851 -0.18073772 29 4 C29.33 4.66 29.66 5.32 30 6 C26.535 7.485 26.535 7.485 23 9 C22.67 8.67 22.34 8.34 22 8 C19.47403741 7.76346477 16.96892793 7.57826308 14.4375 7.4375 C13.37112305 7.37272461 13.37112305 7.37272461 12.28320312 7.30664062 C10.52238088 7.20028223 8.7612168 7.09961154 7 7 C7 6.67 7 6.34 7 6 C11.95 6 16.9 6 22 6 C22 5.34 22 4.68 22 4 C20.4221875 4.2475 20.4221875 4.2475 18.8125 4.5 C15.79531204 4.89569678 13.02906028 5.09178971 10 5 C10 4.01 10 3.02 10 2 C7.36 2.33 4.72 2.66 2 3 C1.67 14.88 1.34 26.76 1 39 C2.65 39 4.3 39 6 39 C6 36.03 6 33.06 6 30 C10.62 30 15.24 30 20 30 C20 30.33 20 30.66 20 31 C15.71 31 11.42 31 7 31 C7 33.97 7 36.94 7 40 C4.69 40 2.38 40 0 40 C0 26.8 0 13.6 0 0 Z " fill="#255B89" transform="translate(450,684)"/>
<path d="M0 0 C2.90543872 1.31376917 4.96661059 2.72056492 7.20800781 4.98095703 C8.10848846 5.88166428 8.10848846 5.88166428 9.02716064 6.80056763 C9.980513 7.76940384 9.980513 7.76940384 10.953125 8.7578125 C11.61334656 9.42086395 12.27356812 10.08391541 12.95379639 10.76705933 C15.05727824 12.88171832 17.15369142 15.00323212 19.25 17.125 C20.67662261 18.56165557 22.10370072 19.99785898 23.53125 21.43359375 C27.02613661 24.95050804 30.51470062 28.47358547 34 32 C28.45196897 32 25.73839116 31.19128051 21.673172 27.20330811 C21.15840805 26.67731018 20.6436441 26.15131226 20.11328125 25.609375 C19.57019821 25.06774719 19.02711517 24.52611938 18.46757507 23.96807861 C17.32404394 22.82289116 16.18544455 21.67276053 15.05151367 20.51806641 C13.32008816 18.75771493 11.57080159 17.0167466 9.81835938 15.27734375 C8.70721731 14.15996285 7.59715424 13.04150773 6.48828125 11.921875 C5.70702629 11.1450235 5.70702629 11.1450235 4.9099884 10.35247803 C2.06156888 7.4294454 0.20788918 4.91587706 -1 1 C-0.67 0.67 -0.34 0.34 0 0 Z " fill="#19608C" transform="translate(652,561)"/>
<path d="M0 0 C2.64 0 5.28 0 8 0 C8 13.2 8 26.4 8 40 C5.36 40 2.72 40 0 40 C-0.33 31.42 -0.66 22.84 -1 14 C-1.99 14.99 -2.98 15.98 -4 17 C-4.33 16.34 -4.66 15.68 -5 15 C-6.97536745 15.34786708 -6.97536745 15.34786708 -9 16 C-9.33 16.66 -9.66 17.32 -10 18 C-10.66 17.67 -11.32 17.34 -12 17 C-10.37780659 14.53977309 -8.75239445 12.08178281 -7.125 9.625 C-6.66480469 8.92632813 -6.20460938 8.22765625 -5.73046875 7.5078125 C-5.28574219 6.8375 -4.84101563 6.1671875 -4.3828125 5.4765625 C-3.97434082 4.85861816 -3.56586914 4.24067383 -3.14501953 3.60400391 C-2 2 -2 2 0 0 Z M0 2 C0 2.66 0 3.32 0 4 C0.66 4 1.32 4 2 4 C2 5.32 2 6.64 2 8 C1.34 8 0.68 8 0 8 C0.33 18.23 0.66 28.46 1 39 C2.98 39 4.96 39 7 39 C7 26.46 7 13.92 7 1 C2.372678 0.627322 2.372678 0.627322 0 2 Z " fill="#3D6D9F" transform="translate(414,684)"/>
<path d="M0 0 C1.21370773 0.00707474 2.42741547 0.01414948 3.67790222 0.0214386 C7.55022087 0.04940236 11.42108792 0.11215034 15.29296875 0.17578125 C17.91990098 0.20086129 20.54685589 0.22367496 23.17382812 0.24414062 C29.60986935 0.29923595 36.04506534 0.3828847 42.48046875 0.48828125 C41.82046875 1.47828125 41.16046875 2.46828125 40.48046875 3.48828125 C38.24133301 3.82885742 38.24133301 3.82885742 35.41992188 3.78125 C34.36542847 3.77134033 33.31093506 3.76143066 32.2244873 3.7512207 C31.08177368 3.72632568 29.93906006 3.70143066 28.76171875 3.67578125 C27.00849304 3.65874146 27.00849304 3.65874146 25.21984863 3.64135742 C20.20135883 3.5921122 15.18358999 3.50768395 10.16552734 3.42675781 C6.51012514 3.37274409 2.85483957 3.33631063 -0.80078125 3.30078125 C-1.94349487 3.27588623 -3.0862085 3.25099121 -4.2635498 3.2253418 C-5.31804321 3.21543213 -6.37253662 3.20552246 -7.45898438 3.1953125 C-8.39005005 3.17960205 -9.32111572 3.1638916 -10.28039551 3.14770508 C-11.0193103 3.26009521 -11.7582251 3.37248535 -12.51953125 3.48828125 C-13.50953125 4.97328125 -13.50953125 4.97328125 -14.51953125 6.48828125 C-15.17953125 6.48828125 -15.83953125 6.48828125 -16.51953125 6.48828125 C-16.51953125 21.00828125 -16.51953125 35.52828125 -16.51953125 50.48828125 C-16.84953125 50.48828125 -17.17953125 50.48828125 -17.51953125 50.48828125 C-17.64643945 44.17136109 -17.7339271 37.85477031 -17.79418945 31.53686523 C-17.8193141 29.38830276 -17.85341986 27.2398256 -17.89672852 25.09155273 C-17.95746917 22.00092513 -17.98576169 18.91142862 -18.0078125 15.8203125 C-18.03361893 14.86179886 -18.05942535 13.90328522 -18.08601379 12.91572571 C-18.08778998 8.68022975 -17.8701574 6.11314014 -15.77148438 2.37304688 C-10.66735764 -0.58520075 -5.79166026 -0.12695848 0 0 Z " fill="#3977A2" transform="translate(416.51953125,364.51171875)"/>
<path d="M0 0 C0.33 0 0.66 0 1 0 C1 10.56 1 21.12 1 32 C-0.98 32 -2.96 32 -5 32 C-5 23.09 -5 14.18 -5 5 C-4.34 5 -3.68 5 -3 5 C-3 5.66 -3 6.32 -3 7 C-2.34 7 -1.68 7 -1 7 C-0.67 4.69 -0.34 2.38 0 0 Z " fill="#06457E" transform="translate(593,691)"/>
<path d="M0 0 C1.53720703 0.01450195 1.53720703 0.01450195 3.10546875 0.02929688 C4.70068359 0.06700195 4.70068359 0.06700195 6.328125 0.10546875 C7.94654297 0.12577148 7.94654297 0.12577148 9.59765625 0.14648438 C12.2583192 0.18180291 14.91796796 0.23112676 17.578125 0.29296875 C17.578125 2.27296875 17.578125 4.25296875 17.578125 6.29296875 C13.45313962 6.3218926 9.32818015 6.33974142 5.203125 6.35546875 C3.4396875 6.36803711 3.4396875 6.36803711 1.640625 6.38085938 C-0.04160156 6.38569336 -0.04160156 6.38569336 -1.7578125 6.390625 C-3.31314697 6.39848022 -3.31314697 6.39848022 -4.89990234 6.40649414 C-7.421875 6.29296875 -7.421875 6.29296875 -9.421875 5.29296875 C-9.421875 4.63296875 -9.421875 3.97296875 -9.421875 3.29296875 C-6.36368652 0.3350119 -4.18023216 -0.06967054 0 0 Z " fill="#09457D" transform="translate(647.421875,716.70703125)"/>
<path d="M0 0 C11.22 0 22.44 0 34 0 C33.01 0.33 32.02 0.66 31 1 C31 1.66 31 2.32 31 3 C38.26 3 45.52 3 53 3 C53 3.33 53 3.66 53 4 C35.51 4 18.02 4 0 4 C0 2.68 0 1.36 0 0 Z " fill="#065286" transform="translate(503,585)"/>
<path d="M0 0 C0.99 0 1.98 0 3 0 C4.30352292 3.14104638 5.59055489 6.28860948 6.875 9.4375 C7.23980469 10.31599609 7.60460937 11.19449219 7.98046875 12.09960938 C10.25113378 17.6937023 11.8539056 23.0704695 13 29 C12.34 29 11.68 29 11 29 C8.55531929 25.78277809 6.54454576 22.2577126 4.4375 18.8125 C3.53354492 17.37293945 3.53354492 17.37293945 2.61132812 15.90429688 C2.03705078 14.97294922 1.46277344 14.04160156 0.87109375 13.08203125 C0.08109985 11.80162964 0.08109985 11.80162964 -0.72485352 10.49536133 C-2.01851292 7.96377167 -2.58867896 5.8003037 -3 3 C-2.01 2.34 -1.02 1.68 0 1 C0 0.67 0 0.34 0 0 Z " fill="#1B5E8B" transform="translate(488,387)"/>
<path d="M0 0 C1.32 0 2.64 0 4 0 C4.19660714 4.10378388 4.3807276 8.20803438 4.5625 12.3125 C4.61857422 13.47974609 4.67464844 14.64699219 4.73242188 15.84960938 C4.78076172 16.96787109 4.82910156 18.08613281 4.87890625 19.23828125 C4.9260376 20.26993408 4.97316895 21.30158691 5.02172852 22.36450195 C5 25 5 25 4 28 C3.34 28 2.68 28 2 28 C2 27.34 2 26.68 2 26 C1.34 26 0.68 26 0 26 C-1.17986385 23.64027231 -1.1291146 22.19952268 -1.1328125 19.5703125 C-1.13410156 18.69246094 -1.13539063 17.81460938 -1.13671875 16.91015625 C-1.13285156 15.99105469 -1.12898438 15.07195313 -1.125 14.125 C-1.12886719 13.21363281 -1.13273437 12.30226563 -1.13671875 11.36328125 C-1.13542969 10.48285156 -1.13414062 9.60242188 -1.1328125 8.6953125 C-1.13168457 7.89109863 -1.13055664 7.08688477 -1.12939453 6.25830078 C-1.0027734 4.04840365 -0.61146326 2.12220865 0 0 Z " fill="#024382" transform="translate(512,686)"/>
<path d="M0 0 C0.99 0.99 1.98 1.98 3 3 C3 3.66 3 4.32 3 5 C2.34 5 1.68 5 1 5 C1 41.3 1 77.6 1 115 C0.67 115 0.34 115 0 115 C0 77.05 0 39.1 0 0 Z " fill="#EDF7FD" transform="translate(293,494)"/>
<path d="M0 0 C6.27 0 12.54 0 19 0 C19 2.31 19 4.62 19 7 C13.06 7 7.12 7 1 7 C1 10.3 1 13.6 1 17 C0.67 17 0.34 17 0 17 C0 13.37 0 9.74 0 6 C2.97 6 5.94 6 9 6 C9 5.34 9 4.68 9 4 C8.34 4 7.68 4 7 4 C7 3.34 7 2.68 7 2 C4.69 2 2.38 2 0 2 C0 1.34 0 0.68 0 0 Z " fill="#3E6991" transform="translate(641,700)"/>
<path d="M0 0 C1.28317892 3.84953676 1.06643637 6.94738135 1 11 C1.66 11 2.32 11 3 11 C3 35.75 3 60.5 3 86 C2.67 86 2.34 86 2 86 C2 61.58 2 37.16 2 12 C0.68 11.34 -0.64 10.68 -2 10 C-2.25 3.375 -2.25 3.375 0 0 Z " fill="#3A738A" transform="translate(513,330)"/>
<path d="M0 0 C1.65 0 3.3 0 5 0 C5 6.93 5 13.86 5 21 C2.525 20.01 2.525 20.01 0 19 C0 12.73 0 6.46 0 0 Z " fill="#014583" transform="translate(541,685)"/>
<path d="M0 0 C0.33 0 0.66 0 1 0 C1.04972917 5.12287 1.08587445 10.24559702 1.10986328 15.36865234 C1.11987218 17.10858612 1.13348343 18.8485033 1.15087891 20.58837891 C1.17535354 23.10062785 1.1865344 25.61265288 1.1953125 28.125 C1.20563507 28.89303955 1.21595764 29.6610791 1.22659302 30.45239258 C1.22764695 35.61638725 0.42419558 40.03256351 -1 45 C-2.65 45 -4.3 45 -6 45 C-6 43.35 -6 41.7 -6 40 C-4.515 39.505 -4.515 39.505 -3 39 C-3 38.34 -3 37.68 -3 37 C-2.34 37 -1.68 37 -1 37 C-1 36.01 -1 35.02 -1 34 C-3.46800047 35.15173355 -5.04783565 36.04783565 -7 38 C-7 36.02 -7 34.04 -7 32 C-4.69 32 -2.38 32 0 32 C0 21.44 0 10.88 0 0 Z " fill="#206293" transform="translate(449,563)"/>
<path d="M0 0 C6.46326465 -0.45356243 9.60931587 0.40621058 15 4 C13.84826645 6.46800047 12.95216435 8.04783565 11 10 C10.34 9.566875 9.68 9.13375 9 8.6875 C5.42285044 6.67535337 1.86509858 5.37571305 -2 4 C-1.34 2.68 -0.68 1.36 0 0 Z " fill="#1C517B" transform="translate(767,684)"/>
<path d="M0 0 C0.825 0.165 1.65 0.33 2.5 0.5 C1.56409496 1.6055189 0.62620142 2.70935453 -0.3125 3.8125 C-1.09560547 4.73482422 -1.09560547 4.73482422 -1.89453125 5.67578125 C-3.36331751 7.34469411 -4.92796259 8.92796259 -6.5 10.5 C6.865 10.995 6.865 10.995 20.5 11.5 C20.5 11.83 20.5 12.16 20.5 12.5 C16.42503897 12.59893453 12.35054344 12.67149694 8.2746582 12.71972656 C6.88846662 12.73983275 5.50235975 12.76712245 4.11645508 12.80175781 C2.12358094 12.85031225 0.13008611 12.87083972 -1.86328125 12.890625 C-3.06251221 12.91157227 -4.26174316 12.93251953 -5.49731445 12.95410156 C-8.5 12.5 -8.5 12.5 -10.41479492 10.47558594 C-10.7729126 9.82364258 -11.13103027 9.17169922 -11.5 8.5 C-4.60284464 0.65754923 -4.60284464 0.65754923 0 0 Z " fill="#2A699A" transform="translate(378.5,583.5)"/>
<path d="M0 0 C6.27 0 12.54 0 19 0 C18.67 1.65 18.34 3.3 18 5 C12.72 5 7.44 5 2 5 C2 3.68 2 2.36 2 1 C1.34 0.67 0.68 0.34 0 0 Z " fill="#03437A" transform="translate(696,685)"/>
<path d="M0 0 C2.31 0 4.62 0 7 0 C7 7.59 7 15.18 7 23 C6.67 23 6.34 23 6 23 C6 16.07 6 9.14 6 2 C4.68 2 3.36 2 2 2 C2 10.58 2 19.16 2 28 C2.66 28 3.32 28 4 28 C4 28.66 4 29.32 4 30 C4.66 30 5.32 30 6 30 C6.33 29.01 6.66 28.02 7 27 C6.67 28.65 6.34 30.3 6 32 C3.5625 31.1875 3.5625 31.1875 1 30 C-0.09911549 26.70265354 -0.1139456 24.27041255 -0.09765625 20.80078125 C-0.09443359 19.59228516 -0.09121094 18.38378906 -0.08789062 17.13867188 C-0.07951172 15.87603516 -0.07113281 14.61339844 -0.0625 13.3125 C-0.05573242 11.40114258 -0.05573242 11.40114258 -0.04882812 9.45117188 C-0.03702873 6.30073436 -0.02056597 3.15039051 0 0 Z " fill="#20557E" transform="translate(510,684)"/>
<path d="M0 0 C0.98484375 0.01804687 1.9696875 0.03609375 2.984375 0.0546875 C4.10585938 0.08949219 4.10585938 0.08949219 5.25 0.125 C5.25 0.455 5.25 0.785 5.25 1.125 C3.27 1.455 1.29 1.785 -0.75 2.125 C-0.40213292 4.10036745 -0.40213292 4.10036745 0.25 6.125 C0.91 6.455 1.57 6.785 2.25 7.125 C-1.08333333 7.125 -4.41666667 7.125 -7.75 7.125 C-7.75 6.465 -7.75 5.805 -7.75 5.125 C-12.32478244 7.1464155 -15.36831569 9.44493178 -18.75 13.125 C-17.2035898 7.2830059 -12.82063911 4.04575543 -7.8828125 0.95703125 C-5.15137809 -0.10852833 -2.9221556 -0.06957513 0 0 Z " fill="#1C5589" transform="translate(267.75,682.875)"/>
<path d="M0 0 C1.15224028 0.92961422 2.29659176 1.8690125 3.4375 2.8125 C4.39462891 3.59560547 4.39462891 3.59560547 5.37109375 4.39453125 C7 6 7 6 8 9 C7.01 9 6.02 9 5 9 C5 9.66 5 10.32 5 11 C5.99 11.33 6.98 11.66 8 12 C6.2578125 12.66796875 6.2578125 12.66796875 4 13 C1.9296875 11.92578125 1.9296875 11.92578125 -0.125 10.3125 C-0.80820312 9.79300781 -1.49140625 9.27351562 -2.1953125 8.73828125 C-4.06556727 6.93684538 -4.99575431 5.37602461 -6 3 C-3.525 3.495 -3.525 3.495 -1 4 C-0.67 2.68 -0.34 1.36 0 0 Z " fill="#144E7A" transform="translate(517,711)"/>
<path d="M0 0 C0.33 0 0.66 0 1 0 C1 21.78 1 43.56 1 66 C0.67 66 0.34 66 0 66 C-0.33 46.2 -0.66 26.4 -1 6 C-1.99 6.66 -2.98 7.32 -4 8 C-2.87548273 5.0280615 -1.77706209 2.66559313 0 0 Z " fill="#E4F7FC" transform="translate(398,495)"/>
<path d="M0 0 C0.78515625 1.671875 0.78515625 1.671875 1 4 C-0.87890625 6.578125 -0.87890625 6.578125 -3.5625 9.25 C-4.86380859 10.58804688 -4.86380859 10.58804688 -6.19140625 11.953125 C-9.44947072 14.32756976 -11.06131601 14.43955945 -15 14 C-4.59836066 1.53278689 -4.59836066 1.53278689 0 0 Z " fill="#175590" transform="translate(391,570)"/>
<path d="M0 0 C2.31 0 4.62 0 7 0 C6.979375 0.763125 6.95875 1.52625 6.9375 2.3125 C6.87057159 5.10185786 6.87057159 5.10185786 8 8 C7.67 8.99 7.34 9.98 7 11 C4.69 11 2.38 11 0 11 C0 7.37 0 3.74 0 0 Z " fill="#074F93" transform="translate(442,552)"/>
<path d="M0 0 C0.33 1.32 0.66 2.64 1 4 C1.66 4 2.32 4 3 4 C3.33 3.34 3.66 2.68 4 2 C4.33 2.66 4.66 3.32 5 4 C4.67 4.99 4.34 5.98 4 7 C4.66 7 5.32 7 6 7 C5.8125 9.3125 5.8125 9.3125 5 12 C2.4375 13.8125 2.4375 13.8125 0 15 C0 13.68 0 12.36 0 11 C-1.98 11 -3.96 11 -6 11 C-5.04867188 10.64808594 -5.04867188 10.64808594 -4.078125 10.2890625 C-1.81749261 9.17709092 -1.81749261 9.17709092 -1.171875 6.8359375 C-0.96304687 5.61777344 -0.96304687 5.61777344 -0.75 4.375 C-0.60046875 3.55773437 -0.4509375 2.74046875 -0.296875 1.8984375 C-0.19890625 1.27195312 -0.1009375 0.64546875 0 0 Z " fill="#124B80" transform="translate(476,697)"/>
<path d="M0 0 C7.26 0 14.52 0 22 0 C22 1.65 22 3.3 22 5 C18.04 5 14.08 5 10 5 C10 4.01 10 3.02 10 2 C6.7 1.67 3.4 1.34 0 1 C0 0.67 0 0.34 0 0 Z " fill="#07487A" transform="translate(586,685)"/>
<path d="M0 0 C2.55630493 -0.36076355 2.55630493 -0.36076355 5.82666016 -0.34057617 C7.04777496 -0.34034958 8.26888977 -0.34012299 9.52700806 -0.33988953 C10.86436323 -0.32456852 12.2017147 -0.30892051 13.5390625 -0.29296875 C14.90383438 -0.28737422 16.26861228 -0.28310344 17.63339233 -0.28010559 C21.22730107 -0.2686454 24.82084667 -0.23916871 28.41461182 -0.20599365 C32.0810454 -0.17531771 35.7475376 -0.16160559 39.4140625 -0.14648438 C46.60954064 -0.11429964 53.80471946 -0.06308972 61 0 C61 0.33 61 0.66 61 1 C59.90458893 1.0154612 59.90458893 1.0154612 58.78704834 1.03123474 C51.90106277 1.12925887 45.01515722 1.23178031 38.12931442 1.33933926 C34.58933307 1.39447655 31.04934332 1.44788161 27.50927734 1.49731445 C23.43838687 1.55423585 19.3676465 1.61871557 15.296875 1.68359375 C13.39201324 1.70866249 13.39201324 1.70866249 11.44866943 1.73423767 C9.67728607 1.7641555 9.67728607 1.7641555 7.87011719 1.79467773 C6.31124786 1.81799416 6.31124786 1.81799416 4.72088623 1.84178162 C2.32784603 1.98093589 0.28855925 2.31731107 -2 3 C-1.34 2.01 -0.68 1.02 0 0 Z " fill="#EDFDFB" transform="translate(577,378)"/>
<path d="M0 0 C2.64 1.32 5.28 2.64 8 4 C8 4.99 8 5.98 8 7 C7.01 7 6.02 7 5 7 C5 7.66 5 8.32 5 9 C6.65 9.33 8.3 9.66 10 10 C7.34501768 11.0169313 6.30844625 11.13022151 3.640625 10.00390625 C2.85171875 9.52824219 2.0628125 9.05257812 1.25 8.5625 C0.45078125 8.08941406 -0.3484375 7.61632812 -1.171875 7.12890625 C-1.77515625 6.75636719 -2.3784375 6.38382813 -3 6 C-1.125 1.125 -1.125 1.125 0 0 Z " fill="#17527A" transform="translate(753,713)"/>
<path d="M0 0 C0 1.65 0 3.3 0 5 C-0.99 5.33 -1.98 5.66 -3 6 C-3 5.34 -3 4.68 -3 4 C-4.2375 4.33 -5.475 4.66 -6.75 5 C-9.74591845 5.79891159 -11.80107719 6 -15 6 C-15 4 -15 4 -13.125 1.875 C-8.74884565 -0.75069261 -4.98077579 -0.34817074 0 0 Z " fill="#044483" transform="translate(337,684)"/>
<path d="M0 0 C0.66 0.33 1.32 0.66 2 1 C2 1.66 2 2.32 2 3 C1.34 3 0.68 3 0 3 C0 4.32 0 5.64 0 7 C0.66 7 1.32 7 2 7 C0.39516194 11.66861981 -1.97490194 16.09258167 -5 20 C-5.66 20 -6.32 20 -7 20 C-6.29937517 15.43263559 -4.68729793 11.4300495 -2.9375 7.1875 C-2.51500977 6.14819336 -2.51500977 6.14819336 -2.08398438 5.08789062 C-1.39325027 3.39032376 -0.69716272 1.69493688 0 0 Z " fill="#1F5F97" transform="translate(542,397)"/>
<path d="M0 0 C3.465 1.485 3.465 1.485 7 3 C6.67 3.99 6.34 4.98 6 6 C5.34 6 4.68 6 4 6 C4 6.66 4 7.32 4 8 C4.99 8.33 5.98 8.66 7 9 C5.265625 9.65234375 5.265625 9.65234375 3 10 C0.859375 9.00390625 0.859375 9.00390625 -1.25 7.5625 C-1.95640625 7.08941406 -2.6628125 6.61632812 -3.390625 6.12890625 C-3.92171875 5.75636719 -4.4528125 5.38382813 -5 5 C-3.68 4.67 -2.36 4.34 -1 4 C-0.67 2.68 -0.34 1.36 0 0 Z " fill="#144F7C" transform="translate(258,714)"/>
<path d="M0 0 C0.66 0 1.32 0 2 0 C2 0.66 2 1.32 2 2 C3.65 2.33 5.3 2.66 7 3 C8.0326802 5.78823655 8.04509293 6.8677274 7.0625 9.75 C6.711875 10.4925 6.36125 11.235 6 12 C5.34 12 4.68 12 4 12 C4 11.34 4 10.68 4 10 C3.34 10 2.68 10 2 10 C0.68373308 6.38026598 0 3.90432869 0 0 Z " fill="#03447F" transform="translate(716,688)"/>
<path d="M0 0 C0.8677564 2.42971792 1.20863003 3.5380335 0.125 5.9375 C-0.24625 6.618125 -0.6175 7.29875 -1 8 C-1.165 8.886875 -1.33 9.77375 -1.5 10.6875 C-1.665 11.450625 -1.83 12.21375 -2 13 C-2.99 13.495 -2.99 13.495 -4 14 C-4.66 13.67 -5.32 13.34 -6 13 C-6 12.34 -6 11.68 -6 11 C-6.66 10.67 -7.32 10.34 -8 10 C-7.34 9.01 -6.68 8.02 -6 7 C-5.60986284 5.0103005 -5.26797351 3.00980131 -5 1 C-4.67 2.32 -4.34 3.64 -4 5 C-0.75150023 3.27773504 -0.75150023 3.27773504 0 0 Z " fill="#034374" transform="translate(348,703)"/>
<path d="M0 0 C0 0.33 0 0.66 0 1 C-1.258125 1.103125 -2.51625 1.20625 -3.8125 1.3125 C-7.13957417 1.69609156 -7.13957417 1.69609156 -9.875 3.5625 C-10.24625 4.036875 -10.6175 4.51125 -11 5 C-11.66 5 -12.32 5 -13 5 C-13 5.66 -13 6.32 -13 7 C-15.64 6.67 -18.28 6.34 -21 6 C-15.13390761 -0.76856814 -8.35034804 -0.26744887 0 0 Z " fill="#1F5584" transform="translate(335,683)"/>
<path d="M0 0 C1.53720703 0.01450195 1.53720703 0.01450195 3.10546875 0.02929688 C4.70068359 0.06700195 4.70068359 0.06700195 6.328125 0.10546875 C7.94654297 0.12577148 7.94654297 0.12577148 9.59765625 0.14648438 C12.2583192 0.18180291 14.91796796 0.23112676 17.578125 0.29296875 C17.578125 0.62296875 17.578125 0.95296875 17.578125 1.29296875 C11.308125 1.29296875 5.038125 1.29296875 -1.421875 1.29296875 C-1.421875 2.61296875 -1.421875 3.93296875 -1.421875 5.29296875 C-7.171875 6.41796875 -7.171875 6.41796875 -9.421875 5.29296875 C-9.421875 4.63296875 -9.421875 3.97296875 -9.421875 3.29296875 C-6.36368652 0.3350119 -4.18023216 -0.06967054 0 0 Z " fill="#275C8B" transform="translate(647.421875,716.70703125)"/>
<path d="M0 0 C2.625 1.1875 2.625 1.1875 5 3 C5 4.32 5 5.64 5 7 C3.375 8.1875 3.375 8.1875 1 9 C-2.25 7.625 -2.25 7.625 -5 6 C-5 5.67 -5 5.34 -5 5 C-3.35 5 -1.7 5 0 5 C0 4.34 0 3.68 0 3 C-0.66 3 -1.32 3 -2 3 C-2 2.34 -2 1.68 -2 1 C-1.34 0.67 -0.68 0.34 0 0 Z " fill="#185080" transform="translate(278,685)"/>
<path d="M0 0 C0.66 0 1.32 0 2 0 C2 1.65 2 3.3 2 5 C-4.6 5 -11.2 5 -18 5 C-18 4.34 -18 3.68 -18 3 C-16.02 3 -14.04 3 -12 3 C-12 2.34 -12 1.68 -12 1 C-11.34 1 -10.68 1 -10 1 C-10 1.66 -10 2.32 -10 3 C-6.7 2.67 -3.4 2.34 0 2 C0 1.34 0 0.68 0 0 Z " fill="#084170" transform="translate(662,685)"/>
<path d="M0 0 C3.96 0 7.92 0 12 0 C11.01 0.33 10.02 0.66 9 1 C9 2.32 9 3.64 9 5 C6.03 5 3.06 5 0 5 C0 3.35 0 1.7 0 0 Z " fill="#064A77" transform="translate(573,685)"/>
<path d="M0 0 C-1.56612193 3.84411747 -4.02094121 6.15950209 -7 9 C-7.86625 9.86625 -8.7325 10.7325 -9.625 11.625 C-11.41666667 13.41666667 -13.20833333 15.20833333 -15 17 C-15.99 16.67 -16.98 16.34 -18 16 C-15.38308836 13.32529045 -12.75518292 10.66165519 -10.125 8 C-9.00544922 6.8553125 -9.00544922 6.8553125 -7.86328125 5.6875 C-7.14785156 4.965625 -6.43242188 4.24375 -5.6953125 3.5 C-5.03547363 2.8296875 -4.37563477 2.159375 -3.69580078 1.46875 C-2 0 -2 0 0 0 Z " fill="#D1E3EB" transform="translate(638,418)"/>
<path d="M0 0 C3.91402949 1.26941497 5.79072873 2.51167694 8 6 C5.525 5.505 5.525 5.505 3 5 C3 4.34 3 3.68 3 3 C2.34 3 1.68 3 1 3 C1.33 4.98 1.66 6.96 2 9 C1.49984375 8.68289063 0.9996875 8.36578125 0.484375 8.0390625 C-2.87241148 6.6351235 -6.16286294 6.53774346 -9.75 6.375 C-10.44738281 6.33632813 -11.14476562 6.29765625 -11.86328125 6.2578125 C-13.57510818 6.16401376 -15.28751682 6.08093826 -17 6 C-17 5.67 -17 5.34 -17 5 C-9.08 4.505 -9.08 4.505 -1 4 C-0.67 2.68 -0.34 1.36 0 0 Z " fill="#34678B" transform="translate(715,685)"/>
<path d="M0 0 C0.33 1.98 0.66 3.96 1 6 C-5.75 7.125 -5.75 7.125 -8 6 C-8 5.34 -8 4.68 -8 4 C-8.99 4 -9.98 4 -11 4 C-11 3.34 -11 2.68 -11 2 C-9.35440244 1.66550467 -7.70851502 1.33243501 -6.0625 1 C-5.14597656 0.814375 -4.22945313 0.62875 -3.28515625 0.4375 C-1 0 -1 0 0 0 Z " fill="#0C4B89" transform="translate(336,716)"/>
<path d="M0 0 C0.33 0 0.66 0 1 0 C1.13277344 0.61488281 1.26554687 1.22976563 1.40234375 1.86328125 C1.57894531 2.67152344 1.75554687 3.47976563 1.9375 4.3125 C2.19853516 5.51326172 2.19853516 5.51326172 2.46484375 6.73828125 C2.99886159 9.145401 2.99886159 9.145401 4 12 C2.68 12 1.36 12 0 12 C0.33 13.98 0.66 15.96 1 18 C-1.0625 16.4375 -1.0625 16.4375 -3 14 C-2.81638074 9.13408969 -1.41766524 4.63103977 0 0 Z " fill="#195282" transform="translate(314,702)"/>
<path d="M0 0 C1.65 0 3.3 0 5 0 C5 0.99 5 1.98 5 3 C4.34 3 3.68 3 3 3 C3 3.66 3 4.32 3 5 C2.01 5.495 2.01 5.495 1 6 C0.34444881 8.52733235 0.34444881 8.52733235 0 11 C1.65 11 3.3 11 5 11 C5.33 8.36 5.66 5.72 6 3 C6.33 3 6.66 3 7 3 C6.67 5.97 6.34 8.94 6 12 C3.69 12 1.38 12 -1 12 C-1.14285714 3.42857143 -1.14285714 3.42857143 0 0 Z " fill="#025194" transform="translate(443,597)"/>
<path d="M0 0 C1.32 0.33 2.64 0.66 4 1 C3.45276317 4.37462715 2.9451 6.08235 1 9 C0.01 8.67 -0.98 8.34 -2 8 C-2 7.34 -2 6.68 -2 6 C-2.66 6 -3.32 6 -4 6 C-4 5.34 -4 4.68 -4 4 C-3.34 4 -2.68 4 -2 4 C-1.34 2.68 -0.68 1.36 0 0 Z " fill="#06417A" transform="translate(406,698)"/>
<path d="M0 0 C0.33 0.99 0.66 1.98 1 3 C-0.71998664 4.801317 -2.45002291 6.59068463 -4.1875 8.375 C-4.91163086 9.13683594 -4.91163086 9.13683594 -5.65039062 9.9140625 C-8.56117467 12.88345293 -11.00455339 14.78748787 -15 16 C-10.30233025 10.33870569 -5.25276628 5.14771096 0 0 Z " fill="#225086" transform="translate(547,444)"/>
<path d="M0 0 C2.31 0 4.62 0 7 0 C7.33 0.66 7.66 1.32 8 2 C4.535 3.485 4.535 3.485 1 5 C0.67 4.67 0.34 4.34 0 4 C-2.52596259 3.76346477 -5.03107207 3.57826308 -7.5625 3.4375 C-8.27341797 3.39431641 -8.98433594 3.35113281 -9.71679688 3.30664062 C-11.47761912 3.20028223 -13.2387832 3.09961154 -15 3 C-15 2.67 -15 2.34 -15 2 C-10.05 2 -5.1 2 0 2 C0 1.34 0 0.68 0 0 Z " fill="#285B89" transform="translate(472,688)"/>
<path d="M0 0 C3 0 3 0 4.625 1.0625 C6.62066174 3.87456882 6.68138504 6.62268141 7 10 C5.1875 9.8125 5.1875 9.8125 3 9 C0.46629412 5.65188866 0 4.29875783 0 0 Z " fill="#0E558F" transform="translate(489,396)"/>
<path d="M0 0 C0.66 0 1.32 0 2 0 C1.96744792 2.05078125 1.93489583 4.1015625 1.90234375 6.15234375 C1.79438816 8.01732141 1.79438816 8.01732141 3 9 C3 6.03 3 3.06 3 0 C3.33 0 3.66 0 4 0 C4 3.3 4 6.6 4 10 C1.69 10 -0.62 10 -3 10 C-2.01 6.7 -1.02 3.4 0 0 Z " fill="#1D528E" transform="translate(694,714)"/>
<path d="M0 0 C-1.32 1.32 -2.64 2.64 -4 4 C-3.67 4.66 -3.34 5.32 -3 6 C-5.31 6 -7.62 6 -10 6 C-10 3 -10 3 -8.9375 1.3125 C-6.02679298 -0.65926927 -3.41970529 -0.19356822 0 0 Z " fill="#0F446F" transform="translate(773,701)"/>
<path d="M0 0 C0.99 0 1.98 0 3 0 C3 0.66 3 1.32 3 2 C3.99 2.33 4.98 2.66 6 3 C5.25 5.4375 5.25 5.4375 4 8 C2.68 8.33 1.36 8.66 0 9 C0 6.03 0 3.06 0 0 Z " fill="#07559B" transform="translate(484,382)"/>
<path d="M0 0 C2.64 0 5.28 0 8 0 C7.67 1.32 7.34 2.64 7 4 C-0.75 5.125 -0.75 5.125 -3 4 C-3 3.34 -3 2.68 -3 2 C-2.01 2 -1.02 2 0 2 C0 1.34 0 0.68 0 0 Z " fill="#044180" transform="translate(525,718)"/>
<path d="M0 0 C0.99 0.33 1.98 0.66 3 1 C2.01 1.33 1.02 1.66 0 2 C0 1.34 0 0.68 0 0 Z M3 0 C5.31 0.33 7.62 0.66 10 1 C9.67 1.99 9.34 2.98 9 4 C8.34 4 7.68 4 7 4 C7 4.66 7 5.32 7 6 C5.68 6 4.36 6 3 6 C3 4.02 3 2.04 3 0 Z " fill="#09437E" transform="translate(756,700)"/>
<path d="M0 0 C7.59 0 15.18 0 23 0 C23 0.33 23 0.66 23 1 C16.4 1.33 9.8 1.66 3 2 C2.34 4.31 1.68 6.62 1 9 C0.67 9 0.34 9 0 9 C0 6.03 0 3.06 0 0 Z " fill="#EEFAFD" transform="translate(642,691)"/>
<path d="M0 0 C2.64 0 5.28 0 8 0 C8 1.32 8 2.64 8 4 C4.67465243 5.10844919 2.37817425 4.84454356 -1 4 C-0.67 2.68 -0.34 1.36 0 0 Z " fill="#02428C" transform="translate(636,686)"/>
<path d="M0 0 C0.33 0.66 0.66 1.32 1 2 C1.66 2 2.32 2 3 2 C3 2.66 3 3.32 3 4 C4.093125 4.2475 5.18625 4.495 6.3125 4.75 C10.05908409 6.02002851 11.10595266 6.65756352 13 10 C7.37581437 9.77503257 4.8279038 8.47912718 1.06640625 4.5703125 C0 3 0 3 0 0 Z " fill="#18587D" transform="translate(673,584)"/>
<path d="M0 0 C0.66 0 1.32 0 2 0 C0.34136495 4.32504836 -2.871041 7.09418825 -6.125 10.25 C-6.68832031 10.80429687 -7.25164063 11.35859375 -7.83203125 11.9296875 C-9.21686028 13.29104485 -10.60783204 14.64614859 -12 16 C-12.66 15.67 -13.32 15.34 -14 15 C-12.73542969 13.75283203 -12.73542969 13.75283203 -11.4453125 12.48046875 C-10.33840925 11.38294603 -9.2316457 10.28528241 -8.125 9.1875 C-7.56941406 8.64029297 -7.01382813 8.09308594 -6.44140625 7.52929688 C-5.90644531 6.99755859 -5.37148438 6.46582031 -4.8203125 5.91796875 C-4.32805176 5.43094482 -3.83579102 4.9439209 -3.32861328 4.44213867 C-1.77411511 2.82996499 -1.77411511 2.82996499 0 0 Z " fill="#E7F5F9" transform="translate(606,448)"/>
<path d="M0 0 C0.66 0 1.32 0 2 0 C2 1.32 2 2.64 2 4 C2.66 4 3.32 4 4 4 C3.67 5.65 3.34 7.3 3 9 C2.67 8.34 2.34 7.68 2 7 C0.68 7.33 -0.64 7.66 -2 8 C-2 6.35 -2 4.7 -2 3 C-1.34 3 -0.68 3 0 3 C0 2.01 0 1.02 0 0 Z " fill="#085392" transform="translate(550,382)"/>
<path d="M0 0 C2.97 0.495 2.97 0.495 6 1 C6 2.65 6 4.3 6 6 C3 6 3 6 0 4 C0 2.68 0 1.36 0 0 Z " fill="#054373" transform="translate(389,700)"/>
<path d="M0 0 C0 0.66 0 1.32 0 2 C-0.99 2 -1.98 2 -3 2 C-3.433125 2.928125 -3.433125 2.928125 -3.875 3.875 C-5 6 -5 6 -7 8 C-7.46162427 10.43252661 -7.46162427 10.43252661 -7.625 13.125 C-7.69976562 14.03507813 -7.77453125 14.94515625 -7.8515625 15.8828125 C-7.90054687 16.58148437 -7.94953125 17.28015625 -8 18 C-8.33 18 -8.66 18 -9 18 C-9.86101859 7.24683455 -9.86101859 7.24683455 -6.625 3.375 C-2.89473684 0 -2.89473684 0 0 0 Z " fill="#D0E3F2" transform="translate(264,691)"/>
<path d="M0 0 C1.65 0.33 3.3 0.66 5 1 C5 1.66 5 2.32 5 3 C5.99 3 6.98 3 8 3 C8 3.66 8 4.32 8 5 C4.67465243 6.10844919 2.37817425 5.84454356 -1 5 C-0.67 3.35 -0.34 1.7 0 0 Z " fill="#01477A" transform="translate(320,717)"/>
<path d="M0 0 C1.32 0.33 2.64 0.66 4 1 C4.66 3.31 5.32 5.62 6 8 C1.125 6.125 1.125 6.125 0 5 C-0.04063832 3.33382885 -0.042721 1.66611905 0 0 Z " fill="#024284" transform="translate(714,714)"/>
<path d="M0 0 C0 4.1592308 -2.24683568 6.14544435 -5 9 C-7.3125 10.875 -7.3125 10.875 -9 12 C-9.66 11.67 -10.32 11.34 -11 11 C-7.37 7.37 -3.74 3.74 0 0 Z " fill="#18467E" transform="translate(559,432)"/>
<path d="M0 0 C1.28317892 3.84953676 1.06643637 6.94738135 1 11 C1.66 11 2.32 11 3 11 C2.67 11.66 2.34 12.32 2 13 C0 11.9375 0 11.9375 -2 10 C-2.46913089 5.62144505 -2.46943529 3.70415293 0 0 Z " fill="#27648C" transform="translate(513,330)"/>
<path d="M0 0 C-0.33 1.98 -0.66 3.96 -1 6 C-1.99 6.33 -2.98 6.66 -4 7 C-4 5.35 -4 3.7 -4 2 C-4.99 1.67 -5.98 1.34 -7 1 C-4.53721199 -0.231394 -2.7204945 -0.07159196 0 0 Z " fill="#064383" transform="translate(758,692)"/>
<path d="M0 0 C3.63 0 7.26 0 11 0 C11 1.32 11 2.64 11 4 C7.0507432 3.44894091 3.65079826 2.61064629 0 1 C0 0.67 0 0.34 0 0 Z " fill="#045288" transform="translate(548,585)"/>
<path d="M0 0 C3.125 -0.1875 3.125 -0.1875 6 0 C5.1875 1.9375 5.1875 1.9375 4 4 C3.01 4.33 2.02 4.66 1 5 C0.01 4.34 -0.98 3.68 -2 3 C-1.34 2.01 -0.68 1.02 0 0 Z " fill="#02447F" transform="translate(767,684)"/>
<path d="M0 0 C2.37948772 0.17625835 3.70225849 0.69719773 5.37890625 2.40234375 C6.62115486 3.90649092 7.81376056 5.45129851 9 7 C7.35 6.67 5.7 6.34 4 6 C4 5.34 4 4.68 4 4 C2.68 4 1.36 4 0 4 C0 2.68 0 1.36 0 0 Z " fill="#175B9A" transform="translate(672,582)"/>
<path d="M0 0 C1.32 0 2.64 0 4 0 C3.67 1.65 3.34 3.3 3 5 C0.03 4.67 -2.94 4.34 -6 4 C-2 2 -2 2 0 2 C0 1.34 0 0.68 0 0 Z " fill="#24639B" transform="translate(470,378)"/>
<path d="M0 0 C-1.49097658 3.7952131 -3.75700849 5.61042731 -7 8 C-7.33 7.34 -7.66 6.68 -8 6 C-3.38461538 0 -3.38461538 0 0 0 Z " fill="#D9EAF3" transform="translate(324,691)"/>
<path d="M0 0 C2.46800047 1.15173355 4.04783565 2.04783565 6 4 C6 4.99 6 5.98 6 7 C5.34 7 4.68 7 4 7 C4 6.34 4 5.68 4 5 C2.68 4.67 1.36 4.34 0 4 C0 2.68 0 1.36 0 0 Z " fill="#115E94" transform="translate(652,561)"/>
<path d="M0 0 C2.40072955 2.88087546 4.47291037 5.56404834 6 9 C3.36 9 0.72 9 -2 9 C-0.68 8.67 0.64 8.34 2 8 C1.67 7.236875 1.34 6.47375 1 5.6875 C0 3 0 3 0 0 Z " fill="#2B5A79" transform="translate(718,715)"/>
<path d="M0 0 C0 0.66 0 1.32 0 2 C1.32 2 2.64 2 4 2 C4 2.99 4 3.98 4 5 C0.30099992 4.11223998 -3.34550461 3.05418136 -7 2 C-4.35261084 0.5393715 -3.10551666 0 0 0 Z " fill="#1E5480" transform="translate(774,706)"/>
<path d="M0 0 C0.99 0 1.98 0 3 0 C3 0.66 3 1.32 3 2 C4.32 2 5.64 2 7 2 C7 2.66 7 3.32 7 4 C4.69 4.33 2.38 4.66 0 5 C0.33 4.01 0.66 3.02 1 2 C0.34 1.67 -0.32 1.34 -1 1 C-0.67 0.67 -0.34 0.34 0 0 Z " fill="#06427F" transform="translate(773,686)"/>
<path d="M0 0 C0.66 0 1.32 0 2 0 C2 2.64 2 5.28 2 8 C0.68 8 -0.64 8 -2 8 C-1.33333333 5.33333333 -0.66666667 2.66666667 0 0 Z " fill="#06418B" transform="translate(454,714)"/>
<path d="M0 0 C0.66 0.66 1.32 1.32 2 2 C-0.31 5.3 -2.62 8.6 -5 12 C-5.66 11.67 -6.32 11.34 -7 11 C-4.69 7.37 -2.38 3.74 0 0 Z " fill="#D8EBF5" transform="translate(411,699)"/>
<path d="M0 0 C0.66 0.33 1.32 0.66 2 1 C2 3.97 2 6.94 2 10 C1.01 10 0.02 10 -1 10 C-1 8.02 -1 6.04 -1 4 C-0.34 4 0.32 4 1 4 C1 3.34 1 2.68 1 2 C0.34 1.67 -0.32 1.34 -1 1 C-0.67 0.67 -0.34 0.34 0 0 Z " fill="#064567" transform="translate(481,694)"/>
<path d="M0 0 C2.64 0 5.28 0 8 0 C8 0.99 8 1.98 8 3 C7.05125 2.938125 6.1025 2.87625 5.125 2.8125 C3.578125 2.9053125 3.578125 2.9053125 2 3 C1.34 3.99 0.68 4.98 0 6 C0 4.02 0 2.04 0 0 Z " fill="#1F629A" transform="translate(442,595)"/>
<path d="M0 0 C2.64 0.33 5.28 0.66 8 1 C8.66 2.65 9.32 4.3 10 6 C9.34 6 8.68 6 8 6 C8 5.34 8 4.68 8 4 C7.01 4 6.02 4 5 4 C5 3.34 5 2.68 5 2 C3.35 2 1.7 2 0 2 C0 1.34 0 0.68 0 0 Z " fill="#21608F" transform="translate(479,378)"/>
<path d="M0 0 C0.99 0 1.98 0 3 0 C2.34 1.65 1.68 3.3 1 5 C-0.65 4.67 -2.3 4.34 -4 4 C-4 3.34 -4 2.68 -4 2 C-2.68 2.33 -1.36 2.66 0 3 C0 2.01 0 1.02 0 0 Z " fill="#24587B" transform="translate(400,711)"/>
<path d="M0 0 C0.66 0 1.32 0 2 0 C1.34 2.31 0.68 4.62 0 7 C-0.99 7 -1.98 7 -3 7 C-2.25 2.25 -2.25 2.25 0 0 Z " fill="#D9E6F0" transform="translate(761,690)"/>
<path d="M0 0 C0.33 0 0.66 0 1 0 C1 2.97 1 5.94 1 9 C0.34 8.01 -0.32 7.02 -1 6 C-1.99 6.66 -2.98 7.32 -4 8 C-2.87548273 5.0280615 -1.77706209 2.66559313 0 0 Z " fill="#DFF1F9" transform="translate(398,495)"/>
<path d="M0 0 C0.33 0 0.66 0 1 0 C1.33 2.97 1.66 5.94 2 9 C0.68 9.33 -0.64 9.66 -2 10 C-1.34 6.7 -0.68 3.4 0 0 Z " fill="#235C81" transform="translate(314,702)"/>
<path d="M0 0 C0.99 0 1.98 0 3 0 C2.67 1.65 2.34 3.3 2 5 C1.01 5.33 0.02 5.66 -1 6 C-1.042721 4.33388095 -1.04063832 2.66617115 -1 1 C-0.67 0.67 -0.34 0.34 0 0 Z " fill="#034185" transform="translate(311,704)"/>
<path d="M0 0 C1.32 0.33 2.64 0.66 4 1 C4 1.99 4 2.98 4 4 C3.34 4 2.68 4 2 4 C2 4.66 2 5.32 2 6 C1.34 6 0.68 6 0 6 C0 4.02 0 2.04 0 0 Z " fill="#004090" transform="translate(342,692)"/>
<path d="M0 0 C0.33 0.66 0.66 1.32 1 2 C1.66 2 2.32 2 3 2 C2 4 1 6 0 8 C-0.66 8 -1.32 8 -2 8 C-1.47731534 5.23723823 -0.89130413 2.6739124 0 0 Z " fill="#3F7092" transform="translate(537,409)"/>
<path d="M0 0 C0.33 0 0.66 0 1 0 C1.33 2.31 1.66 4.62 2 7 C0.68 6.67 -0.64 6.34 -2 6 C-2.33 4.35 -2.66 2.7 -3 1 C-2.67 1.66 -2.34 2.32 -2 3 C-1.34 3 -0.68 3 0 3 C0 2.01 0 1.02 0 0 Z " fill="#0C5481" transform="translate(494,399)"/>
<path d="M0 0 C0.33 0 0.66 0 1 0 C1.3690205 9.41002278 1.3690205 9.41002278 -1 14 C-1.66 13.01 -2.32 12.02 -3 11 C-2.34 10.01 -1.68 9.02 -1 8 C-0.54860541 5.9507906 -0.54860541 5.9507906 -0.375 3.8125 C-0.25125 2.554375 -0.1275 1.29625 0 0 Z " fill="#2E5F8B" transform="translate(349,699)"/>
<path d="M0 0 C1.2077558 3.62326739 0.54311128 4.64146369 -1 8 C-1.66 8 -2.32 8 -3 8 C-4 5 -4 5 -3 2 C-2.01 2 -1.02 2 0 2 C0 1.34 0 0.68 0 0 Z " fill="#0A4692" transform="translate(723,692)"/>
<path d="M0 0 C0.99 0 1.98 0 3 0 C3.33 0.99 3.66 1.98 4 3 C3.01 3.66 2.02 4.32 1 5 C0.34 4.67 -0.32 4.34 -1 4 C-0.67 2.68 -0.34 1.36 0 0 Z " fill="#024285" transform="translate(255,714)"/>
<path d="M0 0 C1.32 0.66 2.64 1.32 4 2 C3.01 2.495 3.01 2.495 2 3 C1.67 3.99 1.34 4.98 1 6 C1.66 6.33 2.32 6.66 3 7 C2.01 7 1.02 7 0 7 C-0.38133299 5.0085944 -0.71325582 3.00720923 -1 1 C-0.67 0.67 -0.34 0.34 0 0 Z " fill="#044676" transform="translate(395,706)"/>
<path d="M0 0 C0 1.32 0 2.64 0 4 C-1.875 4.625 -1.875 4.625 -4 5 C-4.66 4.34 -5.32 3.68 -6 3 C-2.25 0 -2.25 0 0 0 Z " fill="#033B8A" transform="translate(774,702)"/>
<path d="M0 0 C0.99 0.33 1.98 0.66 3 1 C0.03 3.475 0.03 3.475 -3 6 C-2.625 3.5625 -2.625 3.5625 -2 1 C-1.34 0.67 -0.68 0.34 0 0 Z " fill="#1E5F9E" transform="translate(389,573)"/>
</svg>
